<?xml version="1.0" standalone="no"?>
<!DOCTYPE svg PUBLIC "-//W3C//DTD SVG 1.1//EN" "http://www.w3.org/Graphics/SVG/1.1/DTD/svg11.dtd" >
<svg xmlns="http://www.w3.org/2000/svg">
<metadata></metadata>
<defs>
<font id="dbrooksamlight" horiz-adv-x="729" >
<font-face units-per-em="2048" ascent="1536" descent="-512" />
<missing-glyph horiz-adv-x="442" />
<glyph horiz-adv-x="0" />
<glyph horiz-adv-x="682" />
<glyph unicode=" "  horiz-adv-x="442" />
<glyph unicode="&#x09;" horiz-adv-x="442" />
<glyph unicode="&#xa0;" horiz-adv-x="442" />
<glyph unicode="!" horiz-adv-x="321" d="M0 115q0 51 35 86t86 35q52 0 87.5 -35t35.5 -86q0 -53 -35 -88t-88 -35q-51 0 -86 35.5t-35 87.5zM27 473v1077q0 12 6.5 20.5t17.5 8.5h142q9 0 16.5 -9t7.5 -20v-1077q0 -10 -7.5 -18.5t-16.5 -8.5h-142q-10 0 -17 8t-7 19z" />
<glyph unicode="&#x22;" horiz-adv-x="622" d="M0 1481q0 45 30.5 74.5t75.5 29.5q47 0 78 -29t31 -75q0 -11 -2.5 -23t-7 -28t-6.5 -25l-58 -191q-7 -20 -26 -20h-15q-21 0 -26 20l-56 191q-18 49 -18 76zM307 1481q0 45 31.5 74.5t77.5 29.5t76 -29t30 -75q0 -22 -16 -76l-57 -191q-5 -20 -27 -20h-12q-24 0 -27 20 l-57 191q-2 7 -6 19.5t-6.5 20t-4.5 17.5t-2 19z" />
<glyph unicode="#" horiz-adv-x="890" d="M0 426v90q0 10 9 18.5t20 8.5h106q23 0 23 20v455q0 9 -7 14.5t-16 5.5h-106q-12 0 -20.5 8t-8.5 19v90q0 9 9 18t20 9h106q23 0 23 18v283q0 10 8.5 18t17.5 8h90q9 0 18 -8t9 -18v-283q0 -8 6 -13t15 -5h145q7 0 12.5 5t5.5 13v283q0 10 9 18t20 8h90q10 0 17.5 -7.5 t7.5 -18.5v-283q0 -7 6.5 -12.5t15.5 -5.5h109q11 0 19.5 -8.5t8.5 -18.5v-92q0 -11 -8 -18t-20 -7h-109q-9 0 -15.5 -5.5t-6.5 -14.5v-455q0 -9 6.5 -14.5t15.5 -5.5h109q11 0 19.5 -8.5t8.5 -18.5v-92q0 -9 -8 -17t-20 -8h-109q-9 0 -15.5 -6.5t-6.5 -15.5v-281 q0 -9 -7.5 -17.5t-17.5 -8.5h-90q-10 0 -19.5 8.5t-9.5 17.5v281q0 9 -5.5 15.5t-12.5 6.5h-145q-9 0 -15 -6.5t-6 -15.5v-281q0 -9 -9 -17.5t-18 -8.5h-90q-9 0 -17.5 8.5t-8.5 17.5v281q0 9 -6.5 15.5t-16.5 6.5h-106q-11 0 -20 8.5t-9 18.5zM301 563q0 -20 21 -20h145 q18 0 18 20v455q0 7 -5.5 13.5t-12.5 6.5h-145q-8 0 -14.5 -6.5t-6.5 -13.5v-455z" />
<glyph unicode="$" horiz-adv-x="622" d="M1 75q-4 12 1 19l59 105q10 23 37 10q70 -41 131 -41q60 0 92.5 37.5t32.5 97.5v33q0 117 -28.5 190t-151.5 273q-111 186 -141.5 266.5t-30.5 200.5v20q0 124 67.5 205.5t186.5 93.5v311q0 11 7.5 19t17.5 8h30q11 0 19 -8.5t8 -18.5v-311q91 -9 170 -59q18 -11 8 -35 l-55 -105q-6 -9 -17 -11t-22 5q-56 27 -105 27q-52 0 -85 -34.5t-33 -90.5v-14q0 -97 24.5 -158.5t138.5 -245.5q119 -190 155 -290.5t36 -243.5v-29q0 -121 -57 -201.5t-158 -103.5v-320q0 -9 -8.5 -16.5t-18.5 -7.5h-30q-9 0 -17 7.5t-8 16.5v312h-4q-134 0 -238 71 q-9 4 -13 16z" />
<glyph unicode="%" horiz-adv-x="1361" d="M0 1051v311q0 102 68.5 165.5t177.5 63.5t177.5 -63.5t68.5 -165.5v-311q0 -101 -68.5 -164.5t-177.5 -63.5t-177.5 63.5t-68.5 164.5zM156 1053q0 -45 23 -70t67 -25q42 0 64 25t22 70v309q0 45 -22 70.5t-64 25.5q-44 0 -67 -25.5t-23 -70.5v-309zM167.5 14 q-7.5 14 0.5 27l733 1507q9 27 47 27h117q14 0 21 -13t1 -26l-733 -1509q-14 -27 -49 -27h-115q-15 0 -22.5 14zM766 219v309q0 104 68 167t176 63q111 0 179 -63t68 -167v-309q0 -104 -68 -165.5t-179 -61.5q-108 0 -176 62t-68 165zM924 221q0 -45 22 -70.5t64 -25.5 q44 0 67 25.5t23 70.5v307q0 95 -90 95q-86 0 -86 -95v-307z" />
<glyph unicode="&#x26;" horiz-adv-x="954" d="M0 289v475q0 91 27.5 151.5t89.5 98.5q10 6 10.5 17t-8.5 20q-53 50 -53 149v119q0 133 77 205.5t205 72.5h17q123 0 199.5 -73t76.5 -205v-119q0 -122 -82.5 -189t-204.5 -67h-10q-79 -4 -112 -49.5t-33 -122.5v-465q0 -74 34 -114.5t99 -40.5h20q72 0 105 57t57 186 q6 29 -18 45l-99 58q-12 7 -12.5 19.5t8.5 21.5l66 73q14 14 37 4l417 -241q9 -5 10.5 -17t-5.5 -20l-68 -76q-4 -7 -16 -8.5t-19 4.5l-104 59q-10 7 -21 3t-14 -17q-41 -166 -114.5 -246t-215.5 -80h-31q-148 0 -231.5 85t-83.5 227zM252 1190q0 -49 23 -78t69 -29h12 q44 0 70.5 29t26.5 78v117q0 67 -23.5 96t-69.5 29h-10q-98 0 -98 -125v-117z" />
<glyph unicode="'" horiz-adv-x="317" d="M0 1481q0 46 30 75t76 29t77.5 -29.5t31.5 -74.5q0 -11 -3 -24t-8 -28.5t-7 -23.5l-56 -191q-7 -20 -26 -20h-15q-21 0 -26 20l-58 191q-16 50 -16 76z" />
<glyph unicode="(" horiz-adv-x="491" d="M0 788q0 653 272 1137q3 7 13.5 11t19.5 1l109 -43q9 -3 12.5 -13t-0.5 -19q-111 -220 -172 -470t-61 -604q0 -244 33.5 -452t81 -344t118.5 -277q5 -10 1.5 -21.5t-13.5 -15.5l-109 -40q-8 -4 -17 -1t-14 11q-274 487 -274 1140z" />
<glyph unicode=")" horiz-adv-x="534" d="M0.5 -306.5q-3.5 11.5 1.5 21.5q112 218 174 468t62 605q0 353 -62 602.5t-174 471.5q-4 9 -0.5 19t12.5 13l111 43q9 3 18.5 -0.5t12.5 -11.5q272 -484 272 -1137q0 -656 -272 -1140q-5 -8 -15 -11t-18 1l-109 40q-10 4 -13.5 15.5z" />
<glyph unicode="*" horiz-adv-x="862" d="M1 1140q3 11 13 17l217 123q10 6 9.5 14t-9.5 13l-217 123q-9 5 -12.5 15.5t2.5 18.5l41 70q3 8 14.5 11t20.5 -3l215 -129q9 -6 16.5 -1.5t7.5 13.5l-4 254q0 11 7.5 19t19.5 8h78q9 0 17.5 -8.5t8.5 -18.5l-4 -254q0 -10 8 -13.5t17 1.5l213 129q9 4 20 2t17 -10 l39 -68q6 -9 2 -20t-13 -16l-217 -123q-9 -6 -9.5 -14.5t7.5 -12.5l222 -123q19 -15 6 -37l-37 -67q-6 -9 -17 -12t-22 3l-211 127q-12 5 -18.5 1.5t-6.5 -13.5l4 -250q0 -11 -8 -18.5t-18 -7.5h-78q-27 0 -27 26l4 248q0 12 -9.5 16t-16.5 -2l-211 -127q-8 -6 -21 -3.5 t-18 10.5l-39 69q-6 9 -3 20z" />
<glyph unicode="+" horiz-adv-x="1159" d="M0 743v91q0 10 8 18t19 8h407q23 0 23 21v409q0 10 8.5 18.5t17.5 8.5h90q9 0 18 -8.5t9 -18.5v-409q0 -21 23 -21h405q10 0 18.5 -8.5t8.5 -17.5v-91q0 -9 -8.5 -17.5t-18.5 -8.5h-405q-23 0 -23 -21v-407q0 -11 -8.5 -19t-18.5 -8h-90q-10 0 -18 8t-8 19v407 q0 21 -23 21h-407q-11 0 -19 8t-8 18z" />
<glyph unicode="," horiz-adv-x="342" d="M1 -181q-3 11 5 23q51 75 51 117q0 44 -24 78q-27 37 -27 78q0 49 33 83.5t84 34.5q53 0 86 -34.5t33 -83.5q0 -69 -45 -150t-117 -153q-20 -20 -47 -15l-19 6q-10 5 -13 16z" />
<glyph unicode="-" horiz-adv-x="509" d="M0 510v96q0 9 8.5 18t18.5 9h352q11 0 19 -8.5t8 -18.5v-96q0 -11 -7.5 -18t-19.5 -7h-352q-11 0 -19 7.5t-8 17.5z" />
<glyph unicode="." horiz-adv-x="339" d="M0 111q0 49 34 81.5t85 32.5q50 0 83.5 -32.5t33.5 -81.5q0 -51 -33.5 -85t-83.5 -34q-51 0 -85 34t-34 85z" />
<glyph unicode="/" d="M0 -311l563 2207q6 27 35 27h100q15 0 23 -10t4 -25l-559 -2210q-3 -11 -14 -18.5t-23 -7.5h-102q-13 0 -21 11.5t-6 25.5z" />
<glyph unicode="0" horiz-adv-x="753" d="M0 311v955q0 161 88 242t236 81q146 0 235.5 -82t89.5 -241v-955q0 -159 -89.5 -241t-235.5 -82q-147 0 -235.5 81.5t-88.5 241.5zM193 313q0 -166 131 -166t131 166v951q0 166 -131 166t-131 -164v-953z" />
<glyph unicode="1" horiz-adv-x="380" d="M3 1378q-6 14 1 27l98 156q8 14 29 14h123q25 0 25 -27v-1523q0 -9 -7.5 -17t-17.5 -8h-143q-8 0 -16.5 8t-8.5 17v1318q0 21 -18 21h-45q-14 0 -20 14z" />
<glyph unicode="2" horiz-adv-x="710" d="M0 27v65q0 22 10 49l363 834q37 89 49 143t12 131v21q0 73 -38.5 113t-116.5 40q-73 0 -132 -34q-23 -10 -36 10l-43 98q-10 21 10 37q102 55 227 55q149 0 235.5 -84t86.5 -217v-37q0 -88 -22.5 -169t-72.5 -191l-307 -705q-3 -7 0 -12.5t11 -5.5h356q9 0 16.5 -7.5 t7.5 -19.5v-116q0 -9 -7.5 -17t-16.5 -8h-567q-9 0 -17 8.5t-8 18.5z" />
<glyph unicode="3" horiz-adv-x="710" d="M2 94l45 101q3 10 14.5 13t20.5 -5q78 -49 164 -49q85 0 129.5 44.5t44.5 129.5v49q0 168 -170 168q-68 0 -129 -31q-21 -7 -35 10l-14 27q-8 14 0 37l329 794q5 9 0.5 18t-16.5 9h-326q-10 0 -18 8t-8 19v112q0 11 8 19t18 8h535q11 0 19 -7.5t8 -19.5v-78 q0 -23 -13 -49l-303 -712q-3 -9 0 -17t12 -8h9q133 0 209.5 -74.5t76.5 -222.5v-68q0 -144 -88.5 -237.5t-255.5 -93.5q-135 0 -256 71q-19 13 -10 35z" />
<glyph unicode="4" horiz-adv-x="770" d="M0 422v78q0 17 8 41l400 1013q12 21 36 21h119q23 0 23 -27v-983q0 -9 7 -15.5t15 -6.5h49q12 0 19.5 -7.5t7.5 -19.5v-94q0 -11 -7.5 -19t-19.5 -8h-49q-8 0 -15 -6t-7 -16v-348q0 -10 -6.5 -17.5t-16.5 -7.5h-143q-10 0 -17.5 8t-7.5 17v348q0 10 -6 16t-14 6h-350 q-10 0 -17.5 8t-7.5 19zM184 561q-6 -18 13 -18h178q8 0 14 6.5t6 15.5v518q0 9 -9.5 11t-12.5 -7z" />
<glyph unicode="5" horiz-adv-x="710" d="M2 94l45 101q4 10 15 13t20 -3q90 -53 162 -53q88 0 128 49t40 133v31q0 172 -160 172q-50 0 -84.5 -13t-85.5 -45q-14 -8 -29.5 -1t-15.5 22v1048q0 11 8 19t18 8h492q11 0 18 -7.5t7 -19.5v-112q0 -12 -7 -19.5t-18 -7.5h-309q-10 0 -16.5 -6t-6.5 -14v-711 q0 -8 7 -12.5t16 -1.5q47 14 86 14q129 0 202.5 -77.5t73.5 -227.5v-49q0 -145 -90 -240.5t-248 -95.5q-138 0 -258 73q-19 10 -10 33z" />
<glyph unicode="6" horiz-adv-x="768" d="M0 315v910q0 179 93 271.5t263 92.5q121 0 224 -57q24 -14 14 -35l-47 -100q-3 -9 -14 -13t-23 2q-65 35 -145 35q-87 0 -129.5 -47t-42.5 -153v-592q0 -9 7.5 -11.5t14.5 3.5q69 63 170 63q129 0 204 -82t75 -223v-64q0 -153 -91 -240t-247 -87q-153 0 -239.5 87 t-86.5 240zM193 319q0 -172 139 -172q72 0 106.5 46t34.5 126v58q0 79 -36.5 117t-100.5 38q-63 0 -103 -39.5t-40 -115.5v-58z" />
<glyph unicode="7" horiz-adv-x="657" d="M0 1436v112q0 12 7.5 19.5t19.5 7.5h555q11 0 17.5 -7.5t6.5 -19.5v-63q0 -35 -6 -70l-295 -1390q-2 -10 -11 -17.5t-22 -7.5h-153q-11 0 -17.5 10.5t-3.5 22.5l299 1349q3 11 -3.5 19t-18.5 8h-348q-12 0 -19.5 7.5t-7.5 19.5z" />
<glyph unicode="8" horiz-adv-x="753" d="M0 297v465q0 92 27 144t92 89q7 4 7.5 13.5t-5.5 13.5q-98 85 -98 203v75q0 141 79.5 215t223.5 74t223.5 -74t79.5 -215v-75q0 -125 -84 -203q-8 -4 -7.5 -13.5t9.5 -13.5q59 -34 81.5 -87t22.5 -146v-465q0 -309 -325 -309q-164 0 -245 80t-81 229zM193 301 q0 -154 133 -154t133 154v471q0 86 -29.5 125t-101.5 39q-73 0 -104 -39.5t-31 -124.5v-471zM205 1208q0 -145 123 -145q62 0 89 36.5t27 108.5v80q0 142 -118 142q-121 0 -121 -142v-80z" />
<glyph unicode="9" horiz-adv-x="759" d="M0 1196v70q0 152 89 237.5t243 85.5q157 0 241 -85t84 -238v-918q0 -177 -91.5 -268.5t-264.5 -91.5q-112 0 -223 57q-9 5 -13.5 15t1.5 18l45 100q12 24 36 12q70 -36 150 -36q88 0 129 46.5t41 149.5v596q0 10 -8.5 13t-14.5 -3q-69 -63 -172 -63q-127 0 -199.5 82.5 t-72.5 220.5zM190 1198q0 -76 36 -115t96 -39q66 0 105.5 39.5t39.5 114.5v62q0 83 -33 126.5t-108 43.5q-136 0 -136 -170v-62z" />
<glyph unicode=":" horiz-adv-x="335" d="M0 262q0 49 34 82t85 33q50 0 83.5 -33t33.5 -82q0 -51 -33.5 -85t-83.5 -34q-51 0 -85 34t-34 85zM0 858q0 50 34 83.5t85 33.5q49 0 83 -33.5t34 -83.5q0 -51 -33.5 -85t-83.5 -34q-51 0 -85 34t-34 85z" />
<glyph unicode=";" horiz-adv-x="339" d="M-6 -34.5q-3 12.5 4 24.5q53 74 53 114q0 47 -26 80q-25 45 -25 78q0 47 33.5 81t85.5 34t85.5 -33.5t33.5 -81.5q0 -69 -46 -151t-120 -152q-21 -21 -47 -14l-19 6q-9 2 -12 14.5zM0 858q0 50 33.5 83.5t85.5 33.5q51 0 85 -33.5t34 -83.5q0 -51 -34 -85t-85 -34 q-52 0 -85.5 34t-33.5 85z" />
<glyph unicode="&#x3c;" horiz-adv-x="1177" d="M0 764v49q0 20 18 27l1029 428q8 5 18 -2t10 -19v-96q0 -10 -6 -19t-16 -10l-779 -323q-8 -3 -8 -11q0 -9 8 -12l779 -319q22 -6 22 -31v-96q0 -10 -10 -18t-18 -3l-1029 428q-18 7 -18 27z" />
<glyph unicode="=" horiz-adv-x="1159" d="M0 545v92q0 9 8 17t19 8h1001q10 0 18.5 -8t8.5 -17v-92q0 -9 -8.5 -18t-18.5 -9h-1001q-11 0 -19 8.5t-8 18.5zM0 942v90q0 10 8 18.5t19 8.5h1001q10 0 18.5 -9t8.5 -18v-92q0 -10 -8 -17.5t-19 -7.5h-1001q-12 0 -19.5 8t-7.5 19z" />
<glyph unicode="&#x3e;" horiz-adv-x="1177" d="M0 330v96q0 24 20 31l779 319q10 2 10 12q0 8 -10 11l-779 323q-9 1 -14.5 10t-5.5 19v96q0 12 10 19t19 2l1026 -428q20 -7 20 -27v-49q0 -20 -20 -27l-1026 -428q-9 -4 -19 3t-10 18z" />
<glyph unicode="?" horiz-adv-x="661" d="M0.5 1502.5q1.5 10.5 9.5 15.5q66 44 123 61.5t139 17.5q147 0 229.5 -81t82.5 -211v-50q0 -83 -30.5 -155.5t-96.5 -171.5q-68 -107 -91.5 -179t-23.5 -178v-98q0 -10 -9 -18.5t-20 -8.5h-131q-9 0 -16.5 8.5t-7.5 18.5v98q0 123 30.5 215.5t106.5 208.5 q51 81 72.5 138.5t21.5 121.5v31q0 137 -135 137q-76 0 -135 -47q-12 -7 -23 -5t-16 11l-74 101q-7 9 -5.5 19.5zM127 115q0 51 36 86t87 35t87 -35t36 -86q0 -52 -36 -87.5t-87 -35.5t-87 35.5t-36 87.5z" />
<glyph unicode="@" horiz-adv-x="2347" d="M0 307q0 153 55 308t150.5 289t228.5 251t284 200.5t322 131t338 47.5q400 0 633.5 -191t233.5 -522q0 -116 -41.5 -228.5t-110 -201t-156.5 -164.5t-182 -126.5t-185.5 -78.5t-166.5 -28q-98 0 -146 76q-3 7 -11.5 6.5t-14.5 -6.5q-78 -78 -199 -78q-112 -2 -180 70.5 t-68 216.5v546q0 137 67 213t183 76q58 0 97.5 -15.5t82.5 -51.5q4 -6 10.5 -4t6.5 8l6 34q7 21 27 21h118q10 0 17.5 -8t7.5 -17v-899q0 -35 22.5 -51t57.5 -14q96 7 207.5 66.5t207.5 151.5t160 221.5t64 260.5q0 281 -196 450t-550 169q-154 0 -311.5 -43t-295.5 -118.5 t-259 -182.5t-208 -229.5t-137 -264.5t-50 -283q0 -137 51 -252.5t145.5 -198t235.5 -129t313 -46.5q208 0 391 73q12 3 23 -1t14 -15l15 -45q4 -11 0.5 -20.5t-11.5 -14.5q-220 -82 -430 -82q-260 0 -456 88t-303 252t-107 383zM971 285q0 -69 33 -103.5t90 -34.5 q55 0 98 43q25 21 25 58v610q0 35 -25 57q-41 41 -102 41q-53 0 -86 -33.5t-33 -101.5v-536z" />
<glyph unicode="A" horiz-adv-x="813" d="M0 35l315 1521q6 19 27 19h88q23 0 31 -19l305 -1521q2 -12 -7 -23.5t-22 -11.5h-125q-26 0 -34 23l-48 274q-6 29 -36 29h-218q-11 0 -20 -8t-12 -21l-47 -274q-3 -9 -13 -16t-20 -7h-135q-15 0 -23 10q-7 8 -6 20v5zM283 494q-1 -2 -1 -3q0 -5 4 -11q6 -8 13 -7h176 q7 0 13 7q4 5 5 10q0 2 -1 4l-91 544q-3 11 -14 11t-14 -11z" />
<glyph unicode="B" horiz-adv-x="743" d="M0 25v1523q0 11 7.5 19t19.5 8h297q145 0 218.5 -77.5t73.5 -217.5v-205q0 -131 -98 -201q-9 -4 -8.5 -16t10.5 -16q54 -30 86.5 -83t32.5 -120v-317q0 -64 -16 -119t-49 -101.5t-91.5 -73.5t-136.5 -28h-321q-10 0 -17.5 8t-7.5 17zM195 190q0 -7 4.5 -12.5t11.5 -5.5 h76q72 0 110.5 38.5t38.5 113.5v303q0 129 -143 129h-78q-9 0 -14.5 -6.5t-5.5 -14.5v-545zM195 924q0 -23 20 -23h59q150 3 150 150v200q0 80 -38.5 117t-115.5 37h-55q-8 0 -14 -6t-6 -13v-462z" />
<glyph unicode="C" horiz-adv-x="628" d="M0 319v947q0 154 86.5 238.5t237.5 84.5q106 0 219 -63q20 -11 10 -35l-57 -109q-5 -9 -15 -12.5t-22 2.5q-64 41 -131 41q-133 0 -133 -147v-947q0 -81 33 -118t100 -37q36 0 64.5 9.5t72.5 31.5q11 7 21.5 5t15.5 -13l55 -105q5 -8 5 -15q0 -12 -15 -22 q-103 -67 -219 -67q-154 0 -241 85t-87 246z" />
<glyph unicode="D" horiz-adv-x="724" d="M0 25v1525q0 11 7.5 18t19.5 7h274q148 0 235 -78.5t87 -230.5v-957q0 -134 -84.5 -221.5t-223.5 -87.5h-290q-10 0 -17.5 8t-7.5 17zM195 190q0 -20 16 -20h86q60 0 95.5 35t35.5 104v957q0 139 -152 139h-61q-10 0 -15 -6t-5 -13v-1196z" />
<glyph unicode="E" horiz-adv-x="622" d="M0 25v1525q0 11 7.5 18t19.5 7h467q9 0 17.5 -7.5t8.5 -17.5v-118q0 -10 -8.5 -18.5t-17.5 -8.5h-279q-10 0 -15 -6t-5 -13v-501q0 -21 20 -21h156q11 0 18.5 -8t7.5 -18v-107q0 -10 -7.5 -17t-18.5 -7h-156q-20 0 -20 -21v-496q0 -20 16 -20h283q9 0 17.5 -7.5 t8.5 -17.5v-118q0 -10 -8.5 -18.5t-17.5 -8.5h-469q-10 0 -17.5 8t-7.5 17z" />
<glyph unicode="F" horiz-adv-x="628" d="M0 25v1525q0 10 7 17.5t18 7.5h489q10 0 17.5 -7.5t7.5 -17.5v-118q0 -11 -7.5 -19t-17.5 -8h-303q-7 0 -11.5 -6t-4.5 -13v-575q0 -20 16 -20h178q10 0 18.5 -9t8.5 -18v-107q0 -10 -8 -17t-19 -7h-178q-7 0 -11.5 -7t-4.5 -14v-587q0 -9 -8.5 -17t-18.5 -8h-143 q-10 0 -17.5 8t-7.5 17z" />
<glyph unicode="G" horiz-adv-x="755" d="M0 315v951q0 154 89 238.5t241 84.5q109 0 217 -63q10 -5 13.5 -14.5t-1.5 -20.5l-57 -105q-5 -11 -15.5 -14.5t-21.5 2.5q-67 39 -131 39q-139 0 -139 -147v-949q0 -78 33 -115.5t89 -37.5q70 0 125 39q17 15 17 39v374q0 7 -5.5 14t-11.5 7h-108q-9 0 -18 8.5t-9 18.5 v94q0 10 9 18t18 8h293q10 0 17 -7.5t7 -18.5v-731q0 -10 -6.5 -18.5t-17.5 -8.5h-23q-15 0 -31 16l-49 50q-11 11 -26 0q-95 -78 -215 -78q-52 0 -100 17.5t-90 54.5t-67.5 102.5t-25.5 152.5z" />
<glyph unicode="H" horiz-adv-x="749" d="M0 25v1525q0 11 7.5 18t19.5 7h143q9 0 17 -7.5t8 -17.5v-665q0 -21 20 -21h217q9 0 15 6t6 15v665q0 10 7.5 17.5t18.5 7.5h142q9 0 16.5 -7.5t7.5 -17.5v-1525q0 -9 -7.5 -17t-16.5 -8h-142q-10 0 -18 8t-8 17v661q0 8 -6 14.5t-15 6.5h-217q-20 0 -20 -21v-661 q0 -9 -8 -17t-17 -8h-143q-11 0 -19 8t-8 17z" />
<glyph unicode="I" horiz-adv-x="296" d="M0 25v1525q0 10 7 17.5t18 7.5h145q9 0 17 -7.5t8 -17.5v-1525q0 -9 -8 -17t-17 -8h-145q-10 0 -17.5 8t-7.5 17z" />
<glyph unicode="J" horiz-adv-x="612" d="M2 63q-1 4 -1 7q0 8 3 16l51 90q5 11 16 14.5t23 -2.5q50 -26 103 -26q118 0 118 131v1257q0 10 8 17.5t17 7.5h143q11 0 18 -7.5t7 -17.5v-1263q0 -129 -73.5 -212t-209.5 -83q-123 0 -213 55q-8 5 -10 16z" />
<glyph unicode="K" horiz-adv-x="731" d="M0 25v1525q0 10 7 17.5t18 7.5h143q9 0 17 -7.5t8 -17.5v-925q0 -8 5.5 -13.5t12.5 -5.5h14q60 0 114 46t58 132l37 766q1 10 9.5 17.5t17.5 7.5h147q12 0 19.5 -8.5t5.5 -20.5l-37 -762q-5 -166 -125 -249q-16 -13 -10 -27l203 -469q3 -5 3 -10q0 -7 -5 -15 q-8 -14 -21 -14h-160q-20 0 -28 16l-160 416q-13 22 -37 19q-16 -2 -45 -2q-6 0 -12 -6t-6 -15v-403q0 -9 -8 -17t-17 -8h-143q-10 0 -17.5 8t-7.5 17z" />
<glyph unicode="L" horiz-adv-x="589" d="M0 27v1523q0 11 7.5 18t19.5 7h143q9 0 17 -7.5t8 -17.5v-1360q0 -20 20 -20h270q25 0 25 -25v-118q0 -11 -7 -19t-18 -8h-458q-11 0 -19 8t-8 19z" />
<glyph unicode="M" horiz-adv-x="1036" d="M0 29l88 1525q3 21 25 21h30q19 0 25 -12l285 -605q3 -8 12 -8q7 0 10 8l289 605q6 12 24 12h31q22 0 25 -21l86 -1525q2 -11 -5.5 -20t-19.5 -9h-137q-9 0 -16 7t-9 16l-49 958q-1 7 -6 10t-11 1.5t-9 -7.5l-181 -371q-14 -14 -22 -14q-14 0 -23 14l-178 371 q-4 6 -10 7.5t-10.5 -1.5t-5.5 -10l-50 -958q-1 -9 -8.5 -16t-15.5 -7h-139q-12 0 -19.5 9t-5.5 20z" />
<glyph unicode="N" horiz-adv-x="774" d="M0 25v1525q0 11 7.5 18t19.5 7h28q19 0 25 -12l373 -822q5 -8 14.5 -7t9.5 11v805q0 10 8 17.5t17 7.5h143q9 0 17 -7.5t8 -17.5v-1523q0 -11 -8 -19t-19 -8h-29q-19 0 -30 16l-365 824q-6 9 -15 7t-9 -11v-811q0 -9 -8 -17t-17 -8h-143q-11 0 -19 8t-8 17z" />
<glyph unicode="O" horiz-adv-x="759" d="M0 317v945q0 156 88 241.5t240 85.5q150 0 237.5 -85.5t87.5 -241.5v-945q0 -156 -86.5 -242.5t-238.5 -86.5t-240 87t-88 242zM195 317q0 -76 35 -114.5t98 -38.5q62 0 96.5 38.5t34.5 114.5v945q0 76 -35.5 113.5t-95.5 37.5q-61 0 -97 -37.5t-36 -113.5v-945z" />
<glyph unicode="P" horiz-adv-x="735" d="M0 25v1523q0 10 8 18.5t19 8.5h307q133 0 217 -88.5t84 -220.5v-318q0 -145 -84.5 -230t-214.5 -85h-125q-7 0 -12.5 -6.5t-5.5 -14.5v-587q0 -9 -7.5 -17t-17.5 -8h-143q-10 0 -17.5 8t-7.5 17zM193 811q0 -9 5.5 -16t12.5 -7h86q64 0 100.5 43t36.5 107v313 q0 154 -158 154h-65q-7 0 -12.5 -6.5t-5.5 -14.5v-573z" />
<glyph unicode="Q" horiz-adv-x="759" d="M0 317v945q0 156 88 241.5t240 85.5q150 0 237.5 -85.5t87.5 -241.5v-945q0 -241 -192 -305q-21 -7 -15 -32q38 -137 139 -232.5t259 -101.5q9 -2 16.5 -10t7.5 -17v-121q0 -9 -8 -17.5t-18 -8.5q-218 3 -376.5 139t-209.5 358q-6 25 -33 31q-107 30 -165 110t-58 207z M195 317q0 -76 35 -114.5t98 -38.5q62 0 96.5 38.5t34.5 114.5v945q0 76 -35.5 113.5t-95.5 37.5q-61 0 -97 -37.5t-36 -113.5v-945z" />
<glyph unicode="R" horiz-adv-x="768" d="M0 25v1523q0 10 8 18.5t19 8.5h305q134 0 218.5 -86.5t84.5 -228.5v-494q0 -205 -174 -279q-16 -6 -12 -28q7 -52 13.5 -85t23.5 -76.5t41 -69.5t67 -46.5t100 -23.5q25 -8 25 -29v-115q0 -10 -8 -17t-17 -7q-90 1 -160 24.5t-115 61t-77 95.5t-48.5 118.5t-27.5 138.5 q-4 21 -22 21h-29q-20 0 -20 -21v-403q0 -9 -8 -17t-17 -8h-143q-11 0 -19 8t-8 17zM195 621q0 -21 20 -21h76q66 0 104.5 43t38.5 115v487q0 81 -39.5 120.5t-124.5 39.5h-55q-20 0 -20 -21v-763z" />
<glyph unicode="S" horiz-adv-x="622" d="M1 75q-2 5 -2 10t3 9l59 105q10 23 37 10q70 -41 131 -41q60 0 92.5 37.5t32.5 97.5v33q0 117 -28.5 190t-151.5 273q-111 186 -141.5 266.5t-30.5 200.5v20q0 134 78.5 217.5t214.5 83.5q117 0 211 -61q21 -10 10 -35l-55 -105q-6 -9 -17 -11t-22 5q-56 27 -105 27 q-52 0 -85 -34.5t-33 -90.5v-14q0 -97 24.5 -158.5t138.5 -245.5q119 -190 155 -290.5t36 -243.5v-29q0 -145 -80 -229t-221 -84q-134 0 -238 71q-9 4 -13 16z" />
<glyph unicode="T" horiz-adv-x="661" d="M0 1432v116q0 11 7 19t18 8h544q9 0 18 -8.5t9 -18.5v-116q0 -10 -8.5 -17.5t-18.5 -7.5h-153q-9 0 -16 -7.5t-7 -15.5v-1359q0 -9 -7.5 -17t-16.5 -8h-144q-10 0 -17 8t-7 17v1359q0 8 -7 15.5t-16 7.5h-153q-25 0 -25 25z" />
<glyph unicode="U" horiz-adv-x="768" d="M0 324v1226q0 10 7 17.5t18 7.5h143q9 0 17 -7.5t8 -17.5v-1226q0 -77 35.5 -118.5t101.5 -41.5q69 0 105 41.5t36 118.5v1226q0 10 7.5 17.5t17.5 7.5h143q9 0 17 -7.5t8 -17.5v-1226q0 -154 -91 -245t-243 -91t-241 91t-89 245z" />
<glyph unicode="V" horiz-adv-x="827" d="M0 1542q-1 3 -1 6q0 9 7 17q9 10 21 10h131q29 0 32 -27l179 -1085q3 -10 14 -10q7 0 10 10l178 1085q7 27 35 27h131q12 0 21 -10q7 -8 7 -17q0 -3 -1 -6l-289 -1519q-8 -23 -29 -23h-133q-7 0 -16 7.5t-10 15.5z" />
<glyph unicode="W" horiz-adv-x="1128" d="M0 1542v6q0 10 6 18q8 10 19 9h147q12 0 21 -7.5t10 -19.5l121 -987q2 -11 11.5 -11.5t14.5 11.5l142 461q5 16 22 16h23q15 0 20 -16l141 -461q2 -11 13 -11.5t14 11.5l121 987q1 11 11.5 19t21.5 8h145q12 1 20 -9q6 -8 5 -18v-6l-209 -1517q-6 -25 -29 -25h-86 q-10 0 -19 7.5t-12 15.5l-155 520q-3 8 -15 8q-9 0 -12 -8l-158 -520q-8 -23 -30 -23h-84q-23 0 -29 25z" />
<glyph unicode="X" horiz-adv-x="823" d="M2 39l258 762q12 26 0 49l-223 688q-4 15 3 26t21 11h150q23 0 33 -21l114 -444q6 -12 19 -12q9 0 18 12l115 444q7 21 33 21h149q14 0 21.5 -12t3.5 -25l-223 -688q-12 -23 0 -49l260 -762q2 -5 2 -10q0 -9 -6 -17q-8 -12 -21 -12h-151q-8 0 -18 6.5t-13 16.5l-152 512 q-10 10 -18 10q-12 0 -19 -10l-151 -512q-7 -23 -31 -23h-151q-13 0 -21 12q-4 8 -4 16q0 5 2 11z" />
<glyph unicode="Y" horiz-adv-x="845" d="M0 1540q-1 3 -1 6q0 10 7 18q9 11 21 11h133q11 0 21.5 -8t11.5 -19l180 -717q2 -12 14 -12q10 0 12 12l183 717q6 27 32 27h131q14 0 23 -11q5 -7 5 -16q0 -4 -1 -8l-276 -1003q-13 -59 -13 -95v-413q0 -11 -8 -20t-20 -9h-136q-13 0 -20.5 9t-7.5 20v413q0 44 -15 95z " />
<glyph unicode="Z" horiz-adv-x="739" d="M0 27v12q0 18 6 39l424 1298q3 11 -2 21t-18 10h-320q-10 0 -17 7t-7 18v116q0 11 7 19t17 8h545q12 0 20.5 -8t8.5 -19v-6q0 -7 -9 -43l-411 -1298q-3 -11 2.5 -20t17.5 -9h354q10 0 18.5 -8t8.5 -19v-118q0 -10 -9 -18.5t-18 -8.5h-593q-10 0 -17.5 8t-7.5 19z" />
<glyph unicode="[" horiz-adv-x="491" d="M0 -324v2220q0 12 8 19.5t19 7.5h333q12 0 20.5 -8t8.5 -19v-112q0 -12 -8.5 -19.5t-20.5 -7.5h-153q-8 0 -15.5 -6.5t-7.5 -13.5v-1897q0 -8 7.5 -14t15.5 -6h153q12 0 20.5 -7.5t8.5 -19.5v-117q0 -9 -8.5 -16.5t-20.5 -7.5h-333q-10 0 -18.5 7.5t-8.5 16.5z" />
<glyph unicode="\" horiz-adv-x="739" d="M0 1890q-3 14 4.5 23.5t20.5 9.5h108q24 0 31 -20l563 -2214q3 -14 -5.5 -25.5t-23.5 -11.5h-106q-9 0 -17.5 6.5t-11.5 15.5z" />
<glyph unicode="]" horiz-adv-x="501" d="M0 -207q0 12 8 19.5t19 7.5h153q9 0 16 5.5t7 14.5v1897q0 8 -7 14t-16 6h-153q-11 0 -19 7.5t-8 19.5v112q0 10 8 18.5t19 8.5h333q11 0 20 -7.5t9 -19.5v-2220q0 -9 -9 -16.5t-20 -7.5h-333q-10 0 -18.5 7.5t-8.5 16.5v117z" />
<glyph unicode="^" horiz-adv-x="972" d="M0 201l410 893q9 18 26 18h47q18 0 27 -18l410 -893q3 -10 -3.5 -20.5t-19.5 -10.5h-94q-21 0 -31 23l-301 673q-2 8 -10 8q-9 0 -15 -8l-299 -673q-7 -23 -28 -23h-96q-10 0 -18 11t-5 20z" />
<glyph unicode="_" horiz-adv-x="1216" d="M-27 -350q0 10 8 17t19 7h1090q11 0 18.5 -7t7.5 -17v-96q0 -9 -8 -18t-18 -9h-1090q-10 0 -18.5 9t-8.5 18v96z" />
<glyph unicode="`" horiz-adv-x="448" d="M13 1479.5q0 13.5 12 19.5l75 47q23 16 41 -2l281 -215q9 -9 9 -23t-9 -20l-53 -37q-21 -11 -43 2l-301 207q-12 8 -12 21.5z" />
<glyph unicode="a" d="M0 279v546q0 137 67 213t183 76q57 0 97 -16t81 -54q4 -5 11 -3t7 8l5 36q1 9 9 15t17 6h121q9 0 17 -8t8 -17v-1056q0 -9 -8 -17t-17 -8h-141q-10 0 -18.5 8t-8.5 17v30q0 8 -6 10t-14 -4q-63 -69 -162 -69q-114 0 -181 71.5t-67 215.5zM184 285q0 -68 32.5 -103 t88.5 -35q58 0 101 43q24 18 24 58v610q0 38 -24 57q-41 41 -103 41q-51 0 -85 -33.5t-34 -101.5v-536z" />
<glyph unicode="b" horiz-adv-x="724" d="M0 25v1525q0 10 7 17.5t18 7.5h141q9 0 16.5 -7.5t7.5 -17.5v-501q0 -7 7 -9.5t12 2.5q61 72 166 72q115 0 181.5 -72.5t66.5 -216.5v-546q0 -134 -69 -210.5t-185 -76.5q-55 0 -95 15.5t-79 51.5q-6 5 -13 2t-8 -10l-2 -31q-7 -20 -27 -20h-120q-10 0 -17.5 8t-7.5 17z M190 248q0 -39 25 -58q43 -40 100 -40q53 0 86 33.5t33 101.5v536q0 137 -119 137q-57 0 -100 -43q-25 -22 -25 -57v-610z" />
<glyph unicode="c" horiz-adv-x="555" d="M0 274v551q0 131 82.5 212t218.5 81q102 0 172 -45q14 -9 14 -21q0 -6 -4 -12l-41 -98q-14 -25 -36 -10q-50 29 -97 29q-60 0 -91.5 -35.5t-31.5 -102.5v-547q0 -131 123 -131q50 0 94 29q13 6 22.5 2t14.5 -14l41 -99q5 -8 5 -14q0 -11 -13 -20q-72 -41 -172 -41 q-141 0 -221 79.5t-80 206.5z" />
<glyph unicode="d" horiz-adv-x="724" d="M0 279v546q0 140 64.5 214.5t181.5 74.5q100 0 164 -67q8 -6 14 -4t6 10v497q0 10 8 17.5t19 7.5h141q9 0 17 -7.5t8 -17.5v-1525q0 -9 -8 -17t-17 -8h-121q-19 0 -26 20l-5 35q0 9 -7 10.5t-11 -4.5q-37 -39 -78 -54t-100 -15q-113 0 -181.5 74.5t-68.5 212.5zM184 285 q0 -69 32.5 -102t86.5 -33q62 0 105 43q22 17 22 57v610q0 39 -22 58q-43 40 -101 40q-56 0 -89.5 -34.5t-33.5 -102.5v-536z" />
<glyph unicode="e" horiz-adv-x="724" d="M0 279v546q0 134 87.5 212.5t219.5 78.5t221.5 -77.5t89.5 -213.5v-293q0 -12 -7.5 -20t-18.5 -8h-387q-8 0 -13.5 -5t-5.5 -12v-204q0 -70 35.5 -103t112.5 -33q64 0 117 37q19 11 38 -2l84 -80q8 -7 7.5 -18t-9.5 -18q-98 -76 -237 -76q-158 0 -246 77t-88 212z M186 653q0 -18 21 -18h203q20 0 20 18v172q0 133 -121 133q-58 0 -90.5 -33.5t-32.5 -99.5v-172z" />
<glyph unicode="f" horiz-adv-x="638" d="M-2 999v82q0 9 7.5 17t17.5 8h92q8 0 14 5.5t6 14.5v191q0 106 65.5 165.5t176.5 59.5q114 0 198 -51q7 -4 11 -15q2 -4 2 -8q0 -6 -4 -12l-49 -90q-5 -8 -14.5 -11.5t-20.5 3.5q-45 28 -90 28q-37 0 -60.5 -22t-23.5 -68v-170q0 -20 20 -20h143q9 0 17 -8t8 -17v-82 q0 -9 -8 -16.5t-17 -7.5h-143q-8 0 -14 -6t-6 -13v-931q0 -9 -7.5 -17t-17.5 -8h-141q-9 0 -17 8t-8 17v931q0 6 -6.5 12.5t-13.5 6.5h-92q-10 0 -17.5 7.5t-7.5 16.5z" />
<glyph unicode="g" horiz-adv-x="724" d="M0 279v546q0 137 67 213t183 76q57 0 97 -16t81 -54q4 -4 11 -1.5t7 8.5l5 34q1 9 9 15t17 6h121q9 0 17 -8t8 -17v-1271q0 -155 -89 -247.5t-253 -92.5q-115 0 -224 61q-20 13 -10 37l39 92q6 9 17 11t20 -3q78 -43 149 -43q85 0 121.5 48.5t36.5 140.5v241q0 8 -6 10.5 t-14 -4.5q-60 -69 -162 -69q-114 0 -181 71.5t-67 215.5zM184 285q0 -68 32.5 -103t88.5 -35q51 0 101 43q24 19 24 58v610q0 38 -22 57q-44 41 -105 41q-51 0 -85 -33.5t-34 -101.5v-536z" />
<glyph unicode="h" d="M0 25v1525q0 10 7 17.5t18 7.5h141q10 0 17 -7t7 -18v-493q0 -9 7.5 -12.5t13.5 2.5q81 67 178 67q110 0 172 -73.5t62 -215.5v-800q0 -9 -8 -17t-17 -8h-141q-9 0 -17 8t-8 17v800q0 123 -106 123q-70 0 -115 -39q-21 -21 -21 -51v-833q0 -9 -7.5 -17t-16.5 -8h-141 q-10 0 -17.5 8t-7.5 17z" />
<glyph unicode="i" horiz-adv-x="292" d="M-12 1405q0 44 32 75t76 31q45 0 77 -31t32 -75q0 -45 -32 -76t-77 -31t-76.5 31t-31.5 76zM0 25v1056q0 9 8 17t17 8h141q10 0 17 -8t7 -17v-1056q0 -9 -7 -17t-17 -8h-141q-9 0 -17 8t-8 17z" />
<glyph unicode="j" horiz-adv-x="378" d="M-223 -412l45 90q4 10 14 15t19 2q39 -10 90 -10q63 0 99 39.5t36 103.5v1253q0 9 7.5 17t16.5 8h144q9 0 16.5 -8t7.5 -17v-1253q0 -132 -82 -218.5t-215 -86.5q-93 0 -184 31q-17 7 -17 22q0 5 3 12zM70 1405q0 44 31.5 75t74.5 31q44 0 75.5 -31t31.5 -75 q0 -45 -31 -76t-76 -31q-43 0 -74.5 31t-31.5 76z" />
<glyph unicode="k" horiz-adv-x="716" d="M0 25v1525q0 25 25 25h141q9 0 16.5 -7.5t7.5 -17.5v-1001q0 -9 7.5 -15.5t17.5 -5.5q73 14 124.5 62t57.5 133l29 360q1 10 10 16.5t17 6.5h145q10 0 18 -9t7 -20l-31 -356q-10 -82 -41.5 -143.5t-97.5 -104.5q-14 -7 -7 -24l220 -408q3 -6 3 -13q1 -7 -3 -14 q-8 -14 -23 -14h-160q-16 0 -24 14l-168 361q-9 19 -27 12q-29 -10 -55 -10q-7 0 -13 -5.5t-6 -13.5v-333q0 -9 -7.5 -17t-16.5 -8h-141q-11 0 -18 7.5t-7 17.5z" />
<glyph unicode="l" horiz-adv-x="292" d="M0 25v1525q0 10 7 17.5t18 7.5h141q9 0 16.5 -7.5t7.5 -17.5v-1525q0 -9 -7.5 -17t-16.5 -8h-141q-10 0 -17.5 8t-7.5 17z" />
<glyph unicode="m" horiz-adv-x="1159" d="M0 25v1056q0 9 7.5 17t17.5 8h122q8 0 16 -6t9 -13l4 -36q4 -14 21 -4q44 37 86 52t100 15q138 0 195 -100q3 -6 10 -8t12 4q93 104 217 104q114 0 177 -73t63 -216v-800q0 -9 -7.5 -17t-17.5 -8h-139q-10 0 -17.5 8t-7.5 17v800q0 123 -108 123q-71 0 -115 -65 q-20 -27 -20 -60v-798q0 -9 -7.5 -17t-17.5 -8h-143q-9 0 -17 8t-8 17v800q0 123 -104 123q-75 0 -117 -39q-21 -25 -21 -51v-833q0 -9 -7.5 -17t-16.5 -8h-141q-10 0 -17.5 8t-7.5 17z" />
<glyph unicode="n" horiz-adv-x="724" d="M0 25v1056q0 9 7.5 17t17.5 8h122q8 0 16 -6t9 -13l4 -34q3 -17 21 -6q44 37 85.5 52t98.5 15q116 0 179 -73t63 -216v-800q0 -9 -8 -17t-17 -8h-141q-9 0 -17 8t-8 17v800q0 123 -106 123q-73 0 -115 -39q-21 -25 -21 -51v-833q0 -9 -7.5 -17t-16.5 -8h-141 q-10 0 -17.5 8t-7.5 17z" />
<glyph unicode="o" d="M0 279v546q0 131 86.5 211t224.5 80t226 -80t88 -211v-546q0 -131 -88 -210t-226 -79t-224.5 79t-86.5 210zM186 279q0 -132 125 -132t125 132v546q0 133 -125 133t-125 -133v-546z" />
<glyph unicode="p" d="M0 -449v1530q0 9 7.5 17t17.5 8h120q8 0 17 -6t10 -15l4 -38q1 -7 8.5 -8t10.5 3q72 72 172 72q112 0 184 -75t72 -214v-546q0 -138 -64.5 -212.5t-181.5 -74.5q-99 0 -168 63q-5 8 -12 5.5t-7 -11.5v-498q0 -9 -7.5 -16.5t-16.5 -7.5h-141q-10 0 -17.5 7.5t-7.5 16.5z M190 246q0 -37 25 -56q46 -43 100 -43q55 0 87 35t32 103v536q0 68 -33 101.5t-84 33.5q-61 0 -102 -41q-25 -22 -25 -59v-610z" />
<glyph unicode="q" d="M0 279v546q0 137 67 213t183 76q59 0 100.5 -15.5t77.5 -51.5q4 -5 10.5 -3.5t7.5 7.5l5 34q1 9 9 15t17 6h121q9 0 17 -8t8 -17v-1530q0 -9 -8 -16.5t-17 -7.5h-141q-10 0 -18.5 7.5t-8.5 16.5v504q0 8 -6 10t-14 -4q-63 -69 -162 -69q-114 0 -181 71.5t-67 215.5z M184 285q0 -68 32.5 -103t88.5 -35q60 0 103 43q22 19 22 60v608q0 38 -22 57q-44 41 -105 41q-51 0 -85 -33.5t-34 -101.5v-536z" />
<glyph unicode="r" horiz-adv-x="536" d="M0 25v1056q0 9 7.5 17t17.5 8h122q8 0 16 -6t9 -13l4 -36q1 -6 9 -7.5t12 3.5q37 35 69 51t82 16q64 0 119 -22q16 -5 16 -21q0 -5 -2 -12l-32 -113q-3 -9 -13.5 -13.5t-19.5 -0.5q-54 16 -86 16q-76 0 -115 -45q-25 -22 -25 -61v-817q0 -9 -7.5 -17t-16.5 -8h-141 q-10 0 -17.5 8t-7.5 17z" />
<glyph unicode="s" horiz-adv-x="573" d="M4 88l55 90q15 21 37 10q56 -38 119 -38q45 0 73.5 28.5t28.5 73.5v45q0 43 -5.5 70.5t-26.5 56t-35.5 42.5t-59.5 54q-54 46 -81 71.5t-54 62.5t-37 76.5t-10 92.5v43q0 114 74.5 181t193.5 67q103 0 181 -47q10 -4 12.5 -15t-2.5 -20l-51 -94q-6 -10 -18.5 -12t-22.5 6 q-41 20 -86 20q-41 0 -66.5 -24.5t-25.5 -65.5v-37q0 -55 25 -89.5t104 -102.5q52 -43 80 -71t53.5 -66.5t35 -84t9.5 -108.5v-57q0 -109 -74.5 -182.5t-196.5 -73.5q-131 0 -219 59q-14 10 -14 24q0 7 4 15z" />
<glyph unicode="t" horiz-adv-x="612" d="M0 999v82q0 10 7 17.5t18 7.5h92q7 0 12.5 5t5.5 13v260q0 10 8.5 18.5t18.5 8.5h139q12 0 19.5 -8t7.5 -19v-260q0 -18 20 -18h137q12 0 20.5 -8.5t8.5 -20.5v-78q0 -9 -8.5 -16.5t-20.5 -7.5h-137q-10 0 -15 -6t-5 -13v-720q0 -86 71 -86q10 0 18.5 1t18.5 4.5t14 4.5 t16.5 7t14.5 7q12 8 23.5 6t15.5 -12l43 -94q3 -6 3 -13v-8q-2 -12 -13 -16q-78 -45 -184 -45q-234 0 -234 221v743q0 6 -5.5 12.5t-12.5 6.5h-92q-11 0 -18 7t-7 17z" />
<glyph unicode="u" d="M0 279v802q0 9 7.5 17t17.5 8h143q9 0 17 -8t8 -17v-802q0 -121 104 -121q75 0 117 39q20 23 20 51v833q0 9 8 17t17 8h141q10 0 17.5 -8t7.5 -17v-1056q0 -9 -7.5 -17t-17.5 -8h-123q-8 0 -15.5 5.5t-8.5 12.5l-4 33q-1 9 -8 11t-13 -3q-46 -37 -87 -52t-99 -15 q-114 0 -178 73.5t-64 213.5z" />
<glyph unicode="v" horiz-adv-x="735" d="M2 1075q-2 5 -2 9q0 6 4 12q7 10 19 10h139q20 0 28 -23l127 -759q3 -11 13 -11q7 0 10 11l129 759q1 9 9.5 16t17.5 7h141q12 0 18 -9q4 -7 5 -16q0 -3 -1 -6l-215 -1055q-1 -9 -9 -14.5t-17 -5.5h-178q-8 0 -17 6t-10 14z" />
<glyph unicode="w" horiz-adv-x="974" d="M0 1077q-1 12 6.5 20.5t16.5 8.5h141q11 0 20.5 -7.5t10.5 -17.5l96 -655q1 -9 11 -9t13 9l107 276q8 19 27 19h14q15 0 26 -19l107 -276q3 -9 13 -8.5t12 8.5l96 655q4 25 31 25h139q10 0 17.5 -9t6.5 -20l-180 -1054q-7 -23 -29 -23h-90q-18 0 -26 20l-117 316 q-3 8 -14 8q-10 0 -13 -8l-116 -316q-8 -20 -27 -20h-92q-22 0 -29 23z" />
<glyph unicode="x" horiz-adv-x="755" d="M2 33l223 526q6 12 0 29l-182 483q-6 13 0 24t18 11h142q25 0 33 -21l94 -319q3 -8 16 -8q9 0 12 8l97 319q2 8 11 14.5t19 6.5h144q13 0 19 -10.5t1 -24.5l-184 -483q-9 -17 0 -29l223 -526q2 -5 2 -10q0 -7 -4 -13q-6 -10 -18 -10h-142q-23 0 -30 18l-138 371 q0 10 -12 10q-13 0 -16 -10l-135 -371q-7 -18 -29 -18h-143q-13 0 -19 10q-4 6 -4 13q0 5 2 10z" />
<glyph unicode="y" d="M2 1073q-2 5 -2 10q0 6 4 13q5 10 16 10h138q20 0 30 -23l131 -690q3 -8 13 -8q9 0 12 8l127 690q10 23 33 23h133q12 0 17 -10q4 -6 4 -13q0 -4 -1 -8l-317 -1526q-7 -22 -31 -22h-121q-12 0 -19 9.5t-5 23.5l78 399q6 30 0 59z" />
<glyph unicode="z" horiz-adv-x="653" d="M0 25v16q0 23 6 35l350 850q6 12 -0.5 24.5t-21.5 12.5h-254q-9 0 -17 7t-8 17v90q0 12 8 20.5t17 8.5h489q11 0 19 -8.5t8 -20.5v-4q0 -20 -10 -37l-353 -862q-5 -12 1.5 -21.5t19.5 -9.5h299q25 0 25 -24v-92q0 -11 -7 -19t-18 -8h-526q-11 0 -19 8t-8 17z" />
<glyph unicode="{" horiz-adv-x="491" d="M0 788q0 12 6 19q44 40 81.5 105t37.5 147v571q0 206 178 305q14 7 27 -2l90 -51q20 -20 2 -39q-113 -81 -113 -237v-547q0 -87 -33.5 -152t-74.5 -104q-12 -17 2 -31q39 -37 72.5 -102.5t33.5 -153.5v-545q0 -156 113 -237q9 -8 8 -20.5t-10 -18.5l-86 -49 q-5 -5 -15 -5.5t-16 3.5q-178 97 -178 305v567q0 84 -37.5 149t-81.5 105q-6 6 -6 18z" />
<glyph unicode="|" horiz-adv-x="219" d="M0 -324v2220q0 11 7 19t18 8h61q11 0 20 -8.5t9 -18.5v-2220q0 -9 -9 -16.5t-20 -7.5h-61q-10 0 -17.5 7.5t-7.5 16.5z" />
<glyph unicode="}" horiz-adv-x="509" d="M0 -287q-2 11 8 21q111 80 111 237v545q0 87 34.5 153.5t75.5 102.5q5 5 5.5 14.5t-5.5 14.5q-42 40 -76 105t-34 153v547q0 158 -111 237q-7 8 -6.5 19.5t8.5 19.5l84 49q18 11 33 2q178 -97 178 -307v-567q0 -82 37.5 -147t81.5 -105q8 -9 8 -20t-8 -19 q-44 -37 -81.5 -102.5t-37.5 -149.5v-569q0 -212 -176 -305q-16 -6 -29 2l-90 51q-8 7 -10 18z" />
<glyph unicode="~" horiz-adv-x="1095" d="M6 565q-17 27 4 51q41 48 111.5 86.5t167.5 38.5q56 0 108 -14.5t72.5 -25.5t75.5 -42q51 -33 92 -49t96 -16q107 0 195 88q10 9 28.5 7t28.5 -15l25 -35q17 -27 -4 -51q-121 -127 -287 -127q-36 0 -66.5 4.5t-60.5 16t-44.5 18t-46 24.5t-38.5 21q-47 32 -89.5 47.5 t-99.5 15.5q-59 0 -107.5 -26t-78.5 -58q-12 -10 -29 -8.5t-26 12.5z" />
<glyph unicode="&#xa1;" horiz-adv-x="321" d="M0 993q0 52 35 87.5t86 35.5q53 0 88 -35t35 -88q0 -51 -35.5 -86t-87.5 -35q-51 0 -86 35t-35 86zM25 -446v1081q0 9 8 16.5t18 7.5h142q9 0 16.5 -7.5t7.5 -16.5v-1081q0 -9 -7 -17t-17 -8h-142q-10 0 -18 8t-8 17z" />
<glyph unicode="&#xa2;" horiz-adv-x="555" d="M0 274v551q0 117 65 194.5t179 94.5v186q0 11 7.5 20t16.5 9h33q9 0 18 -9.5t9 -19.5v-182q80 -6 145 -45q18 -12 10 -33l-43 -98q-5 -11 -15 -14t-19 4q-50 29 -97 29q-60 0 -91.5 -35.5t-31.5 -102.5v-547q0 -131 123 -131q47 0 94 29q11 7 21.5 2.5t13.5 -14.5l43 -99 q11 -21 -8 -34q-63 -35 -145 -41v-207q0 -9 -9 -17t-18 -8h-33q-9 0 -16.5 8t-7.5 17v211q-116 15 -180 91t-64 191z" />
<glyph unicode="&#xa3;" horiz-adv-x="749" d="M-20 743v84q0 11 9 20t19 9h84q8 0 15 4.5t6 16.5l-21 405q-11 141 73 226t238 85q136 0 234 -53q7 -4 10 -15t0 -18l-45 -98q-3 -10 -14 -14.5t-23 0.5q-61 37 -137 37q-71 0 -109 -42.5t-32 -113.5l16 -404q0 -16 21 -16h135q10 0 18 -9t8 -20v-84q0 -9 -8 -17.5 t-18 -8.5h-125q-23 0 -23 -23l15 -342q4 -47 -9.5 -82t-42.5 -71q-6 -7 -1.5 -18t16.5 -11h332q12 0 19 -7t7 -18v-118q0 -11 -7 -19t-19 -8h-562q-10 0 -17 8t-7 19v84q0 20 12 32q95 84 92 193l-18 362q0 19 -23 19h-90q-10 0 -19 8.5t-9 17.5z" />
<glyph unicode="&#xa5;" horiz-adv-x="845" d="M23 1540q-3 14 5 24.5t21 10.5h131q25 0 35 -27l180 -717q2 -12 13 -12q12 0 14 12l180 717q3 13 13 20t20 7h133q12 0 21 -11t6 -24l-244 -876h172q9 0 17 -8t8 -17v-55q0 -10 -8 -18.5t-17 -8.5h-201l-4 -20q-14 -47 -14 -95v-73h219q9 0 17 -9t8 -18v-55 q0 -10 -8 -17.5t-17 -7.5h-219v-233q0 -11 -8 -20t-21 -9h-133q-13 0 -22 9t-9 20v233h-215q-12 0 -19 8t-7 19v53q0 10 7.5 18.5t18.5 8.5h215v73q0 41 -12 95l-6 20h-197q-12 0 -19 8t-7 19v55q0 10 7.5 17.5t18.5 7.5h168z" />
<glyph unicode="&#xa6;" horiz-adv-x="215" d="M0 -324v971q0 11 7 19t18 8h61q10 0 18.5 -8t8.5 -19v-971q0 -9 -8.5 -16.5t-18.5 -7.5h-61q-10 0 -17.5 7.5t-7.5 16.5zM0 926v970q0 11 7 19t18 8h61q10 0 18.5 -8.5t8.5 -18.5v-970q0 -9 -8.5 -17t-18.5 -8h-61q-10 0 -17.5 8t-7.5 17z" />
<glyph unicode="&#xa7;" horiz-adv-x="833" d="M0 612v23q0 166 154 246q5 3 5.5 9t-5.5 9q-117 88 -117 248v115q0 165 96 250t256 85q146 0 250 -75q9 -6 10 -16.5t-6 -18.5l-76 -98q-6 -9 -16.5 -10.5t-18.5 5.5q-34 22 -63.5 31.5t-77.5 9.5q-77 0 -121.5 -40.5t-44.5 -120.5v-113q0 -51 14.5 -85t66 -67.5 t147.5 -58.5q142 -38 210 -107t68 -176v-22q0 -162 -145 -246q-6 -3 -6 -11t6 -11q65 -41 94 -103.5t29 -161.5v-133q0 -73 -21.5 -135t-64.5 -111t-115.5 -76.5t-167.5 -27.5q-100 0 -168.5 26.5t-136.5 75.5q-6 5 -8 16t4 19l78 105q5 6 14.5 7t17.5 -5q31 -22 54 -35 t62 -25t81 -12q91 0 135.5 49.5t44.5 136.5v125q0 46 -6 72.5t-29.5 55.5t-72.5 51.5t-131 44.5q-150 39 -214.5 106.5t-64.5 179.5zM184 641q0 -63 31.5 -103t110.5 -65q18 -5 54.5 -16.5t51.5 -14.5q14 -3 28.5 0.5t20.5 10.5q62 50 62 149v25q0 63 -29.5 101t-103.5 60 q-9 2 -51.5 16t-53.5 15q-25 3 -45 -8q-76 -53 -76 -145v-25z" />
<glyph unicode="&#xa8;" horiz-adv-x="573" d="M-27 1397q0 39 28.5 66.5t68.5 27.5q38 0 65 -27t27 -67q0 -39 -26.5 -65.5t-65.5 -26.5q-40 0 -68.5 26.5t-28.5 65.5zM283 1397q0 40 27 67t67 27t67 -27t27 -67t-27 -66t-67 -26t-67 26t-27 66z" />
<glyph unicode="&#xa9;" horiz-adv-x="1523" d="M0 791q0 206 92.5 368.5t254.5 252t364 89.5q201 0 362.5 -89.5t253.5 -252t92 -368.5t-92 -368.5t-253.5 -252.5t-362.5 -90q-202 0 -364 90t-254.5 252.5t-92.5 368.5zM72 791q0 -185 83 -331.5t228.5 -227t327.5 -80.5q181 0 326 80.5t228 227t83 331.5t-83 332 t-228 228t-326 81q-182 0 -327.5 -81t-228.5 -227.5t-83 -332.5zM236 745v93q0 213 135.5 347t351.5 134q170 0 295 -88q11 -11 4 -29l-53 -72q-5 -8 -14 -9t-17 5q-89 68 -215 68q-157 0 -250.5 -97.5t-93.5 -258.5v-93q0 -163 93.5 -260.5t250.5 -97.5q125 0 211 70 q21 9 33 -6l53 -74q10 -13 -4 -27q-127 -86 -293 -86q-217 0 -352 133t-135 348z" />
<glyph unicode="&#xaa;" horiz-adv-x="661" d="M0 940v389q0 133 66 198.5t178 65.5q49 0 84 -15t73 -48q3 -6 8 -4.5t7 6.5l4 29q4 18 22 18h97q9 0 14.5 -6t5.5 -14v-846q0 -9 -5.5 -16t-14.5 -7h-113q-8 0 -16.5 7t-8.5 16v26q0 6 -4.5 8.5t-7.5 -2.5q-76 -69 -156 -69q-110 0 -171.5 66.5t-61.5 197.5zM154 944 q0 -133 122 -133q61 0 105 41q20 15 20 49v465q0 29 -20 49q-40 43 -102 43t-93.5 -32t-31.5 -103v-379z" />
<glyph unicode="&#xab;" horiz-adv-x="831" d="M0 559q0 11 6 23l248 344q9 18 31 18h71q14 0 18.5 -11t-1.5 -18l-219 -342q-4 -6 -4 -14q0 -10 4 -16l219 -342q6 -7 1.5 -18t-18.5 -11h-71q-22 0 -31 18l-248 347q-6 9 -6 22zM350 559q0 11 6 23l248 344q9 18 31 18h72q14 0 18 -11t-2 -18l-219 -342q-4 -6 -4 -14 q0 -10 4 -16l219 -342q6 -7 2 -18t-18 -11h-72q-22 0 -31 18l-248 347q-6 9 -6 22z" />
<glyph unicode="&#xac;" horiz-adv-x="1155" d="M0 940v92q0 11 7.5 19t19.5 8h1001q10 0 18.5 -8.5t8.5 -18.5v-489q0 -11 -7.5 -18t-17.5 -7h-102q-9 0 -17 7.5t-8 17.5v352q0 9 -6.5 14.5t-15.5 5.5h-854q-12 0 -19.5 7t-7.5 18z" />
<glyph unicode="&#xad;" horiz-adv-x="509" d="M0 510v96q0 9 8.5 18t18.5 9h352q11 0 19 -8.5t8 -18.5v-96q0 -11 -7.5 -18t-19.5 -7h-352q-11 0 -19 7.5t-8 17.5z" />
<glyph unicode="&#xae;" horiz-adv-x="1056" d="M0 1135q0 210 136 344.5t343 134.5q205 0 341 -135t136 -344q0 -211 -136 -346.5t-341 -135.5q-207 0 -343 135.5t-136 346.5zM68 1135q0 -182 116.5 -298t294.5 -116t295 116t117 298q0 180 -117 295.5t-295 115.5t-294.5 -115.5t-116.5 -295.5zM260 858v567q0 9 7 15 t16 6h233q80 0 132 -51t52 -133v-5q0 -63 -35.5 -107t-89.5 -65q-8 -2 -11 -9t1 -13q15 -66 57 -104t103 -39q23 0 23 -23v-45q0 -9 -7.5 -15t-15.5 -6q-99 0 -166.5 59t-89.5 163q-3 20 -20 20h-72q-19 0 -19 -20v-195q0 -20 -22 -20h-53q-23 0 -23 20zM358 1174 q0 -7 5.5 -12t13.5 -5h119q45 0 73.5 26t28.5 72v5q0 45 -29.5 71.5t-79.5 26.5h-112q-7 0 -13 -6t-6 -13v-165z" />
<glyph unicode="&#xaf;" horiz-adv-x="618" d="M0 1346v73q0 11 8 19t19 8h467q9 0 16.5 -8.5t7.5 -18.5v-73q0 -9 -7.5 -18t-16.5 -9h-467q-10 0 -18.5 9t-8.5 18z" />
<glyph unicode="&#xb0;" horiz-adv-x="583" d="M0 1356q0 107 68.5 171t173.5 64q104 0 172.5 -64.5t68.5 -170.5q0 -107 -69 -172.5t-172 -65.5q-105 0 -173.5 65.5t-68.5 172.5zM102 1356q0 -68 38 -106t102 -38q63 0 100 38t37 106q0 65 -37.5 103t-99.5 38q-64 0 -102 -38t-38 -103z" />
<glyph unicode="&#xb1;" horiz-adv-x="1159" d="M0 289v90q0 10 8 17t19 7h1003q10 0 18.5 -7t8.5 -17v-90q0 -10 -9 -18.5t-18 -8.5h-1003q-11 0 -19 8t-8 19zM0 928v92q0 10 8 17t19 7h409q9 0 16 7.5t7 15.5v344q0 11 8 19t18 8h88q11 0 19 -8t8 -19v-344q0 -8 7 -15.5t16 -7.5h407q10 0 18.5 -7t8.5 -17v-92 q0 -9 -9 -18t-18 -9h-407q-9 0 -16 -5.5t-7 -12.5v-344q0 -12 -8 -19.5t-19 -7.5h-88q-11 0 -18.5 7.5t-7.5 19.5v344q0 7 -7 12.5t-16 5.5h-409q-10 0 -18.5 9t-8.5 18z" />
<glyph unicode="&#xb2;" horiz-adv-x="600" d="M0 539v55q0 22 12 39l299 536q43 82 43 154v20q0 46 -29 72.5t-79 26.5q-48 0 -115 -29q-11 -6 -22.5 -2.5t-16.5 12.5l-35 74q-9 22 13 33q79 49 182 49q119 0 185.5 -61t66.5 -166v-27q0 -92 -68 -219l-243 -426q-5 -8 -1 -18.5t15 -10.5h268q12 0 18.5 -7.5t6.5 -18.5 v-86q0 -25 -25 -25h-450q-9 0 -17 7.5t-8 17.5z" />
<glyph unicode="&#xb3;" horiz-adv-x="618" d="M4 604l35 74q5 9 16.5 12t20.5 -4q64 -37 143 -37q69 0 107.5 35.5t38.5 99.5v21q0 59 -35.5 90t-98.5 31q-43 0 -104 -23q-21 -10 -37 6l-18 19q-14 14 -2 33l245 446q7 11 1.5 21t-19.5 10h-240q-9 0 -17.5 8t-8.5 18v86q0 10 8.5 18.5t17.5 8.5h428q11 0 19 -8.5 t8 -18.5v-61q0 -22 -14 -43l-240 -397h12q109 0 177.5 -63.5t68.5 -178.5v-27q0 -114 -76 -192t-215 -78q-116 0 -211 59q-19 13 -10 35z" />
<glyph unicode="&#xb4;" horiz-adv-x="452" d="M0 1306q0 14 10 23l281 215q9 9 21.5 9.5t19.5 -7.5l76 -47q10 -6 10.5 -19.5t-10.5 -21.5l-302 -207q-24 -14 -43 -2l-53 37q-10 6 -10 20z" />
<glyph unicode="&#xb5;" d="M0 -449v1530q0 9 7.5 17t17.5 8h143q9 0 17 -8t8 -17v-843q0 -31 14 -48q13 -17 38.5 -26.5t51.5 -9.5q81 0 117 39q18 24 18 53v835q0 9 8 17t17 8h143q10 0 17.5 -8t7.5 -17v-1056q0 -9 -7.5 -17t-17.5 -8h-123q-8 0 -15.5 5.5t-8.5 12.5l-2 29q-1 9 -9 10.5t-14 -6.5 q-21 -18 -34 -27t-40 -18.5t-61 -9.5q-42 0 -78 24q-7 4 -14.5 1t-7.5 -11v-459q0 -9 -8.5 -16.5t-18.5 -7.5h-141q-10 0 -17.5 7.5t-7.5 16.5z" />
<glyph unicode="&#xb6;" horiz-adv-x="1402" d="M0 1194v25q0 168 104.5 262t294.5 94h883q9 0 17 -8.5t8 -18.5v-116q0 -10 -8 -17.5t-17 -7.5h-147q-7 0 -14 -7.5t-7 -15.5v-1359q0 -9 -7 -17t-17 -8h-144q-9 0 -16.5 8t-7.5 17v1359q0 8 -7 15.5t-16 7.5h-276q-7 0 -13 -7.5t-6 -15.5v-1359q0 -9 -7.5 -17t-16.5 -8 h-144q-11 0 -17.5 7.5t-6.5 17.5v800q0 10 -7.5 16.5t-15.5 6.5q-188 3 -288.5 92.5t-100.5 253.5zM188 1196q0 -97 48.5 -141.5t152.5 -44.5q8 0 15.5 6.5t7.5 15.5v352q0 8 -8 15.5t-15 7.5q-104 0 -152.5 -46.5t-48.5 -143.5v-21z" />
<glyph unicode="&#xb7;" horiz-adv-x="342" d="M2 793q0 51 34 83.5t85 32.5t85 -32.5t34 -83.5t-34 -85t-85 -34t-85 34t-34 85z" />
<glyph unicode="&#xb8;" horiz-adv-x="516" d="M1 -513q-3 10 3 19l25 41q5 9 15 12t19 -3q68 -29 101 -29q133 0 133 115v39q0 47 -30 75.5t-93 28.5q-49 0 -102 -31q-19 -9 -31 6l-10 15q-9 16 0 28l123 197h108l-61 -100q-5 -6 -1.5 -14.5t13.5 -8.5q93 -2 146 -52.5t53 -137.5v-47q0 -100 -67 -157.5t-171 -57.5 q-80 0 -162 47q-8 5 -11 15z" />
<glyph unicode="&#xb9;" horiz-adv-x="321" d="M6 1448l72 113q10 16 26 16h89q9 0 17.5 -8t8.5 -17v-1003q0 -10 -8.5 -17.5t-17.5 -7.5h-101q-10 0 -17 7t-7 18v840q0 9 -6.5 14.5t-14.5 5.5h-18q-13 0 -21 13.5t-2 25.5z" />
<glyph unicode="&#xba;" horiz-adv-x="653" d="M0 942v383q0 126 73.5 196t202.5 70q130 0 203.5 -70.5t73.5 -195.5v-383q0 -124 -74 -195t-203 -71t-202.5 71t-73.5 195zM156 944q0 -133 120 -133q59 0 90 34.5t31 98.5v379q0 66 -31 100.5t-90 34.5q-120 0 -120 -135v-379z" />
<glyph unicode="&#xbb;" horiz-adv-x="827" d="M0.5 183q-3.5 11 3.5 18l215 342q4 6 4 16q0 8 -4 14l-215 342q-7 7 -3.5 18t17.5 11h70q22 0 31 -18l248 -344q6 -12 6 -23q0 -13 -6 -22l-248 -347q-9 -18 -31 -18h-70q-14 0 -17.5 11zM351 183q-4 11 3 18l215 342q6 6 6 16q0 8 -6 14l-215 342q-7 7 -3 18t18 11h69 q22 0 31 -18l248 -344q8 -16 8 -23q0 -10 -8 -22l-248 -347q-9 -18 -31 -18h-69q-14 0 -18 11z" />
<glyph unicode="&#xbc;" horiz-adv-x="1349" d="M7.5 1422.5q-8.5 13.5 0.5 23.5l72 115q7 14 26 14h87q10 0 17 -7t7 -18v-1003q0 -9 -7 -17t-17 -8h-101q-9 0 -17.5 8t-8.5 17v842q0 20 -21 20h-14q-15 0 -23.5 13.5zM168 35l680 1513q12 27 37 27h82q15 0 22 -10.5t2 -24.5l-680 -1513q-3 -12 -14 -19.5t-23 -7.5h-81 q-14 0 -21.5 11t-3.5 24zM690 324v45q0 23 12 41l336 628q9 15 27 15h80q10 0 17 -7t7 -16v-586q0 -7 7.5 -13.5t15.5 -6.5h47q11 0 18 -7t7 -18v-75q0 -10 -7.5 -18.5t-17.5 -8.5h-47q-8 0 -15.5 -6t-7.5 -15v-251q0 -9 -7 -17t-17 -8h-98q-10 0 -18.5 8t-8.5 17v251 q0 21 -23 21h-280q-10 0 -18.5 9t-8.5 18zM849 435q4 -11 17 -11h131q10 0 16.5 6t6.5 14v258q0 13 -14 16t-19 -9l-135 -256q-7 -7 -3 -18z" />
<glyph unicode="&#xbd;" horiz-adv-x="1445" d="M9.5 1422.5q-8.5 13.5 0.5 23.5l72 115q7 14 27 14h86q10 0 17 -7t7 -18v-1003q0 -9 -7 -17t-17 -8h-101q-9 0 -17.5 8t-8.5 17v842q0 20 -21 20h-14q-15 0 -23.5 13.5zM170 35l680 1513q12 27 37 27h82q15 0 22 -10.5t2 -24.5l-680 -1513q-3 -12 -14 -19.5t-23 -7.5h-81 q-14 0 -21.5 11t-3.5 24zM838 25v55q0 26 10 41l301 547q25 41 34 71.5t9 71.5v23q0 43 -30.5 68.5t-78.5 25.5q-63 0 -114 -29q-9 -5 -22 -1.5t-17 13.5l-35 76q-4 8 -0.5 17.5t12.5 15.5q80 47 183 47q118 0 184.5 -60.5t66.5 -166.5v-27q0 -54 -16.5 -102t-54.5 -115 l-240 -426q-6 -9 -2 -20t16 -11h269q24 0 24 -26v-88q0 -10 -6.5 -17.5t-17.5 -7.5h-451q-10 0 -17 8t-7 17z" />
<glyph unicode="&#xbe;" horiz-adv-x="1552" d="M5 584q-3 10 3 18l31 74q4 10 15 13.5t20 -1.5q65 -41 145 -41q71 0 109.5 35.5t38.5 101.5v19q0 60 -34.5 90.5t-96.5 30.5q-56 0 -113 -25q-19 -9 -33 10l-18 19q-10 13 -2 33l247 446q6 9 1 20t-19 11h-240q-24 0 -24 26v84q0 12 6.5 19.5t17.5 7.5h428 q12 0 19.5 -7.5t7.5 -19.5v-59q0 -25 -14 -45l-234 -397h6q109 0 176.5 -62.5t67.5 -177.5v-29q0 -113 -74.5 -190.5t-212.5 -77.5q-118 0 -213 59q-8 5 -11 15zM389 35l678 1513q9 27 39 27h82q14 0 21 -11t3 -24l-680 -1513q-14 -27 -38 -27h-80q-14 0 -22.5 11t-2.5 24z M897 324v45q0 17 12 41l334 628q12 15 29 15h80q10 0 18 -7t8 -16v-586q0 -8 6 -14t13 -6h47q11 0 18.5 -7.5t7.5 -17.5v-75q0 -9 -8 -18t-18 -9h-47q-8 0 -13.5 -6t-5.5 -15v-251q0 -9 -8 -17t-18 -8h-99q-11 0 -18.5 7.5t-7.5 17.5v251q0 9 -6.5 15t-14.5 6h-282 q-10 0 -18.5 9t-8.5 18zM1056.5 435q4.5 -11 14.5 -11h135q8 0 14.5 6.5t6.5 13.5v258q0 14 -13.5 16.5t-21.5 -9.5l-135 -256q-5 -7 -0.5 -18z" />
<glyph unicode="&#xbf;" horiz-adv-x="626" d="M0 -147q0 84 30.5 156.5t94.5 168.5q70 110 93.5 182.5t23.5 178.5v98q0 11 8 19t18 8h133q9 0 17 -8.5t8 -18.5v-98q0 -123 -30 -215.5t-105 -210.5q-53 -78 -75.5 -135.5t-22.5 -122.5v-31q0 -139 135 -139q72 0 139 45q9 9 19.5 7t15.5 -11l76 -101q13 -19 -7 -35 q-68 -43 -124 -61t-138 -18q-146 0 -227.5 82t-81.5 212v48zM209 995q0 52 36.5 86.5t86.5 34.5q52 0 87.5 -34.5t35.5 -86.5t-35.5 -86.5t-87.5 -34.5q-50 0 -86.5 34.5t-36.5 86.5z" />
<glyph unicode="&#xc0;" horiz-adv-x="813" d="M0 35l313 1521q6 19 27 19h90q24 0 29 -19l305 -1521q2 -13 -6.5 -24t-22.5 -11h-125q-24 0 -32 23l-48 274q-3 13 -13.5 21t-24.5 8h-216q-24 0 -34 -29l-47 -274q-8 -23 -33 -23h-133q-15 0 -23.5 10.5t-5.5 24.5zM178 1950q0 14 10 20l76 47q23 16 41 -2l281 -217 q10 -8 10 -21.5t-10 -19.5l-54 -37q-19 -12 -43 2l-301 207q-10 7 -10 21zM283 494q-2 -7 3 -14t13 -7h176q7 0 11.5 7.5t2.5 13.5l-88 544q-3 11 -16 11q-9 0 -12 -11z" />
<glyph unicode="&#xc1;" horiz-adv-x="813" d="M0 35l313 1521q6 19 27 19h90q24 0 29 -19l305 -1521q2 -13 -6.5 -24t-22.5 -11h-125q-24 0 -32 23l-48 274q-3 13 -13.5 21t-24.5 8h-216q-24 0 -34 -29l-47 -274q-8 -23 -33 -23h-133q-15 0 -23.5 10.5t-5.5 24.5zM174 1776.5q0 13.5 10 21.5l281 217q9 9 22 9.5 t19 -7.5l76 -47q10 -7 11 -20t-11 -21l-301 -207q-22 -13 -43 -2l-54 37q-10 6 -10 19.5zM283 494q-2 -7 3 -14t13 -7h176q7 0 11.5 7.5t2.5 13.5l-88 544q-3 11 -16 11q-9 0 -12 -11z" />
<glyph unicode="&#xc2;" horiz-adv-x="813" d="M0 35l313 1521q6 19 27 19h90q24 0 29 -19l305 -1521q2 -13 -6.5 -24t-22.5 -11h-125q-24 0 -32 23l-48 274q-3 13 -13.5 21t-24.5 8h-216q-24 0 -34 -29l-47 -274q-8 -23 -33 -23h-133q-15 0 -23.5 10.5t-5.5 24.5zM122 1804.5q0 12.5 11 18.5l234 168q8 4 18 4 q12 0 18 -4l234 -168q11 -6 11 -18.5t-11 -18.5l-53 -39q-20 -10 -33 0l-150 96q-8 4 -16 4t-16 -4l-150 -96q-13 -10 -33 0l-53 39q-11 6 -11 18.5zM283 494q-2 -7 3 -14t13 -7h176q7 0 11.5 7.5t2.5 13.5l-88 544q-3 11 -16 11q-9 0 -12 -11z" />
<glyph unicode="&#xc3;" horiz-adv-x="813" d="M0 35l313 1521q6 19 27 19h90q24 0 29 -19l305 -1521q2 -13 -6.5 -24t-22.5 -11h-125q-24 0 -32 23l-48 274q-3 13 -13.5 21t-24.5 8h-216q-24 0 -34 -29l-47 -274q-8 -23 -33 -23h-133q-15 0 -23.5 10.5t-5.5 24.5zM106 1855q-9 15 3 31q20 20 34 32t49.5 27t73.5 15 q33 0 59.5 -6.5t42 -13.5t40.5 -23q20 -12 29 -16.5t26 -8.5t37 -4q49 0 94 35q7 8 19 6t18 -12l35 -53q14 -14 -2 -31q-74 -74 -164 -74q-21 0 -38 2t-33 7.5t-24 9t-24.5 12t-20.5 10.5q-19 12 -28 17t-27 9.5t-39 4.5q-48 0 -90 -37q-18 -14 -35 6zM283 494q-2 -7 3 -14 t13 -7h176q7 0 11.5 7.5t2.5 13.5l-88 544q-3 11 -16 11q-9 0 -12 -11z" />
<glyph unicode="&#xc4;" horiz-adv-x="813" d="M0 35l313 1521q6 19 27 19h90q24 0 29 -19l305 -1521q2 -13 -6.5 -24t-22.5 -11h-125q-24 0 -32 23l-48 274q-3 13 -13.5 21t-24.5 8h-216q-24 0 -34 -29l-47 -274q-8 -23 -33 -23h-133q-15 0 -23.5 10.5t-5.5 24.5zM137 1868q0 40 28 67t68 27q39 0 67 -27.5t28 -66.5 t-28 -66.5t-67 -27.5q-40 0 -68 27t-28 67zM283 494q-2 -7 3 -14t13 -7h176q7 0 11.5 7.5t2.5 13.5l-88 544q-3 11 -16 11q-9 0 -12 -11zM449 1868q0 40 26 67t66 27t67 -27t27 -67t-27 -67t-67 -27t-66 27t-26 67z" />
<glyph unicode="&#xc5;" horiz-adv-x="813" d="M0 35l313 1521q6 19 27 19h90q24 0 29 -19l305 -1521q2 -13 -6.5 -24t-22.5 -11h-125q-24 0 -32 23l-48 274q-3 13 -13.5 21t-24.5 8h-216q-24 0 -34 -29l-47 -274q-8 -23 -33 -23h-133q-15 0 -23.5 10.5t-5.5 24.5zM201 1868q0 83 51.5 131.5t130.5 48.5q80 0 133 -48.5 t53 -131.5q0 -80 -53 -129t-133 -49q-78 0 -130 49t-52 129zM283 494q-2 -7 3 -14t13 -7h176q7 0 11.5 7.5t2.5 13.5l-88 544q-3 11 -16 11q-9 0 -12 -11zM291 1868q0 -44 25 -70t67 -26q43 0 69.5 26t26.5 70q0 46 -26 72t-70 26q-42 0 -67 -26t-25 -72z" />
<glyph unicode="&#xc6;" horiz-adv-x="1103" d="M0 35l313 1521q6 19 27 19h635q11 0 18.5 -7.5t7.5 -17.5v-118q0 -11 -8 -19t-18 -8h-461q-8 0 -13 -7t-1 -14l92 -499q4 -21 22 -21h236q11 0 19 -8t8 -18v-107q0 -10 -8 -17t-19 -7h-199q-18 0 -14 -21l90 -496q3 -20 25 -20h223q11 0 18.5 -7.5t7.5 -17.5v-118 q0 -11 -8 -19t-18 -8h-365q-24 0 -32 23l-48 274q-6 29 -36 29h-218q-24 0 -34 -29l-47 -274q-8 -23 -33 -23h-133q-15 0 -23.5 11.5t-5.5 23.5zM283 494q-2 -7 3 -14t13 -7h176q7 0 11.5 7.5t2.5 13.5l-88 538q-2 10 -16 10q-10 0 -12 -10z" />
<glyph unicode="&#xc7;" horiz-adv-x="628" d="M0 319v947q0 154 86.5 238.5t237.5 84.5q106 0 219 -63q20 -11 10 -35l-57 -109q-14 -21 -37 -10q-64 41 -131 41q-133 0 -133 -147v-947q0 -81 32.5 -118t100.5 -37q55 0 135 41q12 7 23 5t16 -13l55 -105q11 -22 -10 -37q-91 -59 -187 -65l-53 -90q-5 -6 -0.5 -14.5 t15.5 -8.5q92 -2 145 -52t53 -138v-47q0 -100 -66.5 -157.5t-172.5 -57.5q-82 0 -160 47q-9 5 -12.5 15t2.5 19l24 41q15 22 37 9q64 -29 100 -29q131 0 131 115v39q0 104 -122 104q-50 0 -103 -31q-18 -11 -28 6l-13 15q-9 16 0 28l119 191q-122 17 -189 100.5t-67 224.5z " />
<glyph unicode="&#xc8;" horiz-adv-x="622" d="M0 25v1525q0 10 8 17.5t19 7.5h467q9 0 17.5 -7.5t8.5 -17.5v-118q0 -10 -8.5 -18.5t-17.5 -8.5h-279q-10 0 -15 -6t-5 -13v-501q0 -21 20 -21h156q12 0 19 -7.5t7 -18.5v-107q0 -24 -26 -24h-156q-20 0 -20 -21v-496q0 -20 18 -20h281q9 0 17.5 -7.5t8.5 -17.5v-118 q0 -10 -8.5 -18.5t-17.5 -8.5h-469q-9 0 -17 8t-8 17zM68 1950q0 14 10 20l76 47q23 16 41 -2l280 -217q11 -8 11 -21.5t-11 -19.5l-53 -37q-19 -12 -43 2l-301 207q-10 7 -10 21z" />
<glyph unicode="&#xc9;" horiz-adv-x="622" d="M0 25v1525q0 10 8 17.5t19 7.5h467q9 0 17.5 -7.5t8.5 -17.5v-118q0 -10 -8.5 -18.5t-17.5 -8.5h-279q-10 0 -15 -6t-5 -13v-501q0 -21 20 -21h156q12 0 19 -7.5t7 -18.5v-107q0 -24 -26 -24h-156q-20 0 -20 -21v-496q0 -20 18 -20h281q9 0 17.5 -7.5t8.5 -17.5v-118 q0 -10 -8.5 -18.5t-17.5 -8.5h-469q-9 0 -17 8t-8 17zM78 1776.5q0 13.5 10 21.5l281 217q7 9 20 9.5t19 -7.5l77 -47q10 -6 10.5 -19.5t-10.5 -21.5l-303 -207q-21 -14 -41 -2l-53 37q-10 6 -10 19.5z" />
<glyph unicode="&#xca;" horiz-adv-x="622" d="M0 25v1525q0 10 8 17.5t19 7.5h467q9 0 17.5 -7.5t8.5 -17.5v-118q0 -10 -8.5 -18.5t-17.5 -8.5h-279q-10 0 -15 -6t-5 -13v-501q0 -21 20 -21h156q12 0 19 -7.5t7 -18.5v-107q0 -24 -26 -24h-156q-20 0 -20 -21v-496q0 -20 18 -20h281q9 0 17.5 -7.5t8.5 -17.5v-118 q0 -10 -8.5 -18.5t-17.5 -8.5h-469q-9 0 -17 8t-8 17zM8 1804.5q0 12.5 10 18.5l234 168q6 4 18 4q11 0 19 -4l233 -168q10 -6 10 -18.5t-10 -18.5l-53 -39q-20 -10 -33 0l-149 96q-8 4 -17 4q-8 0 -16 -4l-150 -96q-13 -10 -32 0l-54 39q-10 6 -10 18.5z" />
<glyph unicode="&#xcb;" horiz-adv-x="622" d="M0 25v1525q0 10 8 17.5t19 7.5h467q9 0 17.5 -7.5t8.5 -17.5v-118q0 -10 -8.5 -18.5t-17.5 -8.5h-279q-10 0 -15 -6t-5 -13v-501q0 -21 20 -21h156q12 0 19 -7.5t7 -18.5v-107q0 -24 -26 -24h-156q-20 0 -20 -21v-496q0 -20 18 -20h281q9 0 17.5 -7.5t8.5 -17.5v-118 q0 -10 -8.5 -18.5t-17.5 -8.5h-469q-9 0 -17 8t-8 17zM14 1868q0 40 27.5 67t67.5 27t67 -27t27 -67t-27 -67t-67 -27t-67.5 27t-27.5 67zM324 1868q0 40 27 67t67 27t67 -27t27 -67t-27 -67t-67 -27t-67 27t-27 67z" />
<glyph unicode="&#xcc;" horiz-adv-x="296" d="M-112 1950q0 14 12 20l75 47q23 16 41 -2l281 -217q9 -8 9 -21.5t-9 -19.5l-53 -37q-21 -11 -43 2l-301 207q-12 7 -12 21zM0 25v1525q0 10 7 17.5t18 7.5h145q9 0 17 -7.5t8 -17.5v-1525q0 -9 -8 -17t-17 -8h-145q-10 0 -17.5 8t-7.5 17z" />
<glyph unicode="&#xcd;" horiz-adv-x="296" d="M-112 1776.5q0 13.5 10 21.5l280 217q9 9 21.5 9.5t19.5 -7.5l76 -47q10 -7 11 -20t-11 -21l-301 -207q-24 -14 -43 -2l-53 37q-10 6 -10 19.5zM0 25v1525q0 10 7 17.5t18 7.5h145q9 0 17 -7.5t8 -17.5v-1525q0 -9 -8 -17t-17 -8h-145q-10 0 -17.5 8t-7.5 17z" />
<glyph unicode="&#xce;" horiz-adv-x="296" d="M-164 1804.5q0 12.5 10 18.5l234 168q6 4 18 4q11 0 19 -4l233 -168q10 -6 10 -18.5t-10 -18.5l-53 -39q-20 -10 -33 0l-149 96q-8 4 -17 4q-8 0 -16 -4l-150 -96q-13 -10 -32 0l-54 39q-10 6 -10 18.5zM0 25v1525q0 10 7 17.5t18 7.5h145q9 0 17 -7.5t8 -17.5v-1525 q0 -9 -8 -17t-17 -8h-145q-10 0 -17.5 8t-7.5 17z" />
<glyph unicode="&#xcf;" horiz-adv-x="296" d="M-152 1868q0 39 28.5 66.5t68.5 27.5q39 0 66.5 -27.5t27.5 -66.5t-27.5 -66.5t-66.5 -27.5q-40 0 -68.5 27.5t-28.5 66.5zM0 25v1525q0 10 7 17.5t18 7.5h145q9 0 17 -7.5t8 -17.5v-1525q0 -9 -8 -17t-17 -8h-145q-10 0 -17.5 8t-7.5 17zM158 1868q0 40 27 67t67 27 t67 -27t27 -67t-27 -67t-67 -27t-67 27t-27 67z" />
<glyph unicode="&#xd0;" horiz-adv-x="724" d="M-98 748v67q0 12 7.5 19.5t18.5 7.5h52q9 0 14.5 6t5.5 14v688q0 10 8 17.5t19 7.5h274q148 0 235 -78.5t87 -230.5v-957q0 -134 -84.5 -221.5t-223.5 -87.5h-290q-9 0 -17 8t-8 17v675q0 21 -20 21h-52q-10 0 -18 9t-8 18zM195 190q0 -20 18 -20h84q59 0 93 34.5 t34 104.5v957q0 139 -148 139h-61q-10 0 -15 -6t-5 -13v-524q0 -8 5.5 -14t14.5 -6h53q10 0 17.5 -8t7.5 -19v-67q0 -9 -8 -18t-17 -9h-53q-20 0 -20 -21v-510z" />
<glyph unicode="&#xd1;" horiz-adv-x="774" d="M0 25v1525q0 10 8 17.5t19 7.5h28q19 0 25 -12l373 -822q6 -8 15 -7t9 11v805q0 10 8 17.5t17 7.5h143q9 0 17 -7.5t8 -17.5v-1523q0 -11 -8 -19t-19 -8h-29q-20 0 -28 16l-367 824q-5 9 -14.5 7t-9.5 -11v-811q0 -9 -8 -17t-17 -8h-143q-10 0 -18.5 8t-8.5 17zM70 1855 q-9 16 2 31q20 20 34 32t49.5 27t73.5 15q33 0 59.5 -6.5t42 -13.5t40.5 -23q20 -12 29 -16.5t26 -8.5t37 -4q49 0 94 35q7 8 19 6t18 -12l35 -53q12 -12 -2 -31q-74 -74 -164 -74q-17 0 -33 2t-26.5 4.5t-24 7.5t-19 8t-19.5 10t-17 9q-18 11 -28 16.5t-28 10t-39 4.5 q-48 0 -90 -37q-18 -14 -35 6z" />
<glyph unicode="&#xd2;" horiz-adv-x="759" d="M0 317v945q0 156 88 241.5t240 85.5q150 0 237.5 -85.5t87.5 -241.5v-945q0 -156 -86.5 -242.5t-238.5 -86.5t-240 87t-88 242zM133 1950q0 14 12 20l76 47q22 18 39 -2l283 -217q9 -8 9 -21.5t-9 -19.5l-56 -37q-20 -12 -41 2l-301 207q-12 7 -12 21zM195 317 q0 -76 35 -114.5t98 -38.5q62 0 96.5 38.5t34.5 114.5v945q0 76 -35.5 113.5t-95.5 37.5q-61 0 -97 -37.5t-36 -113.5v-945z" />
<glyph unicode="&#xd3;" horiz-adv-x="759" d="M0 317v945q0 156 88 241.5t240 85.5q150 0 237.5 -85.5t87.5 -241.5v-945q0 -156 -86.5 -242.5t-238.5 -86.5t-240 87t-88 242zM112 1776.5q0 13.5 11 21.5l280 217q7 9 20.5 9.5t20.5 -7.5l76 -47q10 -6 10.5 -19.5t-10.5 -21.5l-301 -207q-24 -14 -43 -2l-53 37 q-11 6 -11 19.5zM195 317q0 -76 35 -114.5t98 -38.5q62 0 96.5 38.5t34.5 114.5v945q0 76 -35.5 113.5t-95.5 37.5q-61 0 -97 -37.5t-36 -113.5v-945z" />
<glyph unicode="&#xd4;" horiz-adv-x="759" d="M0 317v945q0 156 88 241.5t240 85.5q150 0 237.5 -85.5t87.5 -241.5v-945q0 -156 -86.5 -242.5t-238.5 -86.5t-240 87t-88 242zM68 1804.5q0 12.5 10 18.5l233 168q8 4 19 4q12 0 18 -4l234 -168q10 -6 10 -18.5t-10 -18.5l-54 -39q-19 -10 -32 0l-150 96q-8 4 -16 4 q-9 0 -17 -4l-149 -96q-13 -10 -33 0l-53 39q-10 6 -10 18.5zM195 317q0 -76 35 -114.5t98 -38.5q62 0 96.5 38.5t34.5 114.5v945q0 76 -35.5 113.5t-95.5 37.5q-61 0 -97 -37.5t-36 -113.5v-945z" />
<glyph unicode="&#xd5;" horiz-adv-x="759" d="M0 317v945q0 156 88 241.5t240 85.5q150 0 237.5 -85.5t87.5 -241.5v-945q0 -156 -86.5 -242.5t-238.5 -86.5t-240 87t-88 242zM51 1855q-9 16 2 31q74 74 158 74q33 0 59.5 -6.5t41 -13.5t40.5 -23q20 -12 29 -16.5t26 -8.5t37 -4q50 0 95 35q7 8 18.5 6t17.5 -12 l35 -53q14 -14 -2 -31q-74 -74 -164 -74q-21 0 -38 2t-32.5 7.5t-23.5 9t-24 12t-21 10.5q-19 12 -28 17t-27 9.5t-39 4.5q-48 0 -90 -37q-18 -14 -35 6zM195 317q0 -76 35 -114.5t98 -38.5q62 0 96.5 38.5t34.5 114.5v945q0 76 -35.5 113.5t-95.5 37.5q-61 0 -97 -37.5 t-36 -113.5v-945z" />
<glyph unicode="&#xd6;" horiz-adv-x="759" d="M0 317v945q0 156 88 241.5t240 85.5q150 0 237.5 -85.5t87.5 -241.5v-945q0 -156 -86.5 -242.5t-238.5 -86.5t-240 87t-88 242zM84 1868q0 40 28 67t68 27q39 0 66.5 -27.5t27.5 -66.5t-27.5 -66.5t-66.5 -27.5q-40 0 -68 27t-28 67zM195 317q0 -76 35 -114.5t98 -38.5 q62 0 96.5 38.5t34.5 114.5v945q0 76 -35.5 113.5t-95.5 37.5q-61 0 -97 -37.5t-36 -113.5v-945zM395 1868q0 40 26 67t66 27q41 0 68 -27t27 -67t-27 -67t-68 -27q-40 0 -66 27t-26 67z" />
<glyph unicode="&#xd7;" horiz-adv-x="1040" d="M0.5 409q0.5 12 9.5 19l342 344q8 8 8 16t-8 13l-344 348q-16 19 0 39l64 61q6 9 17 9t22 -9l346 -346q9 -12 28 0l346 346q6 7 17.5 7t17.5 -7l66 -63q8 -8 8 -19t-8 -18l-346 -346q-6 -5 -6.5 -13t6.5 -16l346 -346q6 -6 6 -17.5t-6 -17.5l-66 -67q-6 -6 -18 -6t-21 6 l-342 348q-14 12 -28 -2l-346 -346q-9 -6 -21 -6t-18 6l-64 65q-8 6 -7.5 18z" />
<glyph unicode="&#xd8;" horiz-adv-x="759" d="M0 317v945q0 156 88 241.5t240 85.5q97 0 164 -33l30 105q9 27 35 27h41q17 0 24.5 -11.5t2.5 -25.5l-47 -162q75 -81 75 -227v-945q0 -156 -86.5 -242.5t-238.5 -86.5q-103 0 -168 32l-29 -104q-9 -27 -35 -27h-43q-15 0 -22 9.5t-4 23.5l47 166q-74 87 -74 229z M195 508l239 852q-35 53 -106 53q-61 0 -97 -37.5t-36 -113.5v-754zM215 217q35 -53 113 -53q62 0 96.5 38.5t34.5 114.5v752z" />
<glyph unicode="&#xd9;" horiz-adv-x="768" d="M0 324v1226q0 10 7 17.5t18 7.5h143q9 0 17 -7.5t8 -17.5v-1226q0 -77 35.5 -118.5t101.5 -41.5q69 0 105 41.5t36 118.5v1226q0 10 7.5 17.5t17.5 7.5h143q9 0 17 -7.5t8 -17.5v-1226q0 -154 -91 -245t-243 -91t-241 91t-89 245zM131 1950q0 14 12 20l76 47q22 18 39 -2 l283 -217q9 -8 9 -21.5t-9 -19.5l-54 -37q-23 -11 -43 2l-301 207q-12 7 -12 21z" />
<glyph unicode="&#xda;" horiz-adv-x="768" d="M0 324v1226q0 10 7 17.5t18 7.5h143q9 0 17 -7.5t8 -17.5v-1226q0 -77 35.5 -118.5t101.5 -41.5q69 0 105 41.5t36 118.5v1226q0 10 7.5 17.5t17.5 7.5h143q9 0 17 -7.5t8 -17.5v-1226q0 -154 -91 -245t-243 -91t-241 91t-89 245zM122 1776.5q0 13.5 9 21.5l283 217 q7 9 20 9.5t19 -7.5l75 -47q11 -6 12 -19.5t-12 -21.5l-301 -207q-20 -13 -43 -2l-53 37q-9 6 -9 19.5z" />
<glyph unicode="&#xdb;" horiz-adv-x="768" d="M0 324v1226q0 10 7 17.5t18 7.5h143q9 0 17 -7.5t8 -17.5v-1226q0 -77 35.5 -118.5t101.5 -41.5q69 0 105 41.5t36 118.5v1226q0 10 7.5 17.5t17.5 7.5h143q9 0 17 -7.5t8 -17.5v-1226q0 -154 -91 -245t-243 -91t-241 91t-89 245zM75 1804.5q0 12.5 9 18.5l235 168 q6 4 19 4q10 0 16 -4l236 -168q9 -6 9 -18.5t-9 -18.5l-55 -39q-20 -10 -33 0l-150 96q-6 4 -14 4q-10 0 -16 -4l-150 -96q-13 -10 -33 0l-55 39q-9 6 -9 18.5z" />
<glyph unicode="&#xdc;" horiz-adv-x="768" d="M0 324v1226q0 10 7 17.5t18 7.5h143q9 0 17 -7.5t8 -17.5v-1226q0 -77 35.5 -118.5t101.5 -41.5q69 0 105 41.5t36 118.5v1226q0 10 7.5 17.5t17.5 7.5h143q9 0 17 -7.5t8 -17.5v-1226q0 -154 -91 -245t-243 -91t-241 91t-89 245zM92 1868q0 40 27.5 67t68.5 27 q38 0 65.5 -27t27.5 -67t-27.5 -67t-65.5 -27q-41 0 -68.5 27t-27.5 67zM401 1868q0 40 27.5 67t67.5 27t67 -27t27 -67t-27 -67t-67 -27t-67.5 27t-27.5 67z" />
<glyph unicode="&#xdd;" horiz-adv-x="845" d="M0 1540q-3 13 6 24t21 11h133q11 0 21.5 -8t11.5 -19l180 -717q2 -12 14 -12q10 0 12 12l183 717q6 27 32 27h131q14 0 22.5 -11t4.5 -24l-276 -1003q-13 -59 -13 -95v-413q0 -11 -8 -20t-20 -9h-136q-13 0 -20.5 9t-7.5 20v413q0 44 -15 95zM178 1776.5q0 13.5 10 21.5 l281 217q9 9 21.5 9.5t19.5 -7.5l76 -47q10 -7 11 -20t-11 -21l-301 -207q-22 -13 -43 -2l-54 37q-10 6 -10 19.5z" />
<glyph unicode="&#xde;" horiz-adv-x="739" d="M0 25v1525q0 10 8 17.5t17 7.5h143q10 0 17.5 -7.5t7.5 -17.5v-237q0 -21 20 -21h123q132 0 216.5 -89t84.5 -222v-315q0 -147 -85.5 -233.5t-213.5 -86.5h-125q-20 0 -20 -20v-301q0 -9 -7.5 -17t-17.5 -8h-143q-9 0 -17 8t-8 17zM193 524q0 -8 5.5 -15t14.5 -7h84 q65 0 100 43t35 108v316q0 151 -156 151h-63q-9 0 -14.5 -6.5t-5.5 -15.5v-574z" />
<glyph unicode="&#xdf;" horiz-adv-x="763" d="M0 25v1269q0 127 86 199t213 72h20q127 0 211 -72.5t84 -198.5v-260q0 -58 -16.5 -95t-54.5 -75q-8 -6 -7.5 -16t9.5 -14q117 -66 117 -172v-394q0 -118 -77 -193t-196 -75h-90q-9 0 -17 7.5t-8 17.5v102q0 11 7.5 18t17.5 7h51q105 0 105 110v400q0 44 -25 66t-68 22 h-63q-9 0 -17 7.5t-8 16.5v94q0 10 8 17.5t17 7.5h29q48 2 70 24t22 80v289q0 54 -29 83.5t-76 29.5h-16q-48 0 -78.5 -29.5t-30.5 -83.5v-1261q0 -9 -7 -17t-17 -8h-141q-11 0 -18 7.5t-7 17.5z" />
<glyph unicode="&#xe0;" d="M0 279v546q0 137 66 213t184 76q57 0 97 -16t81 -54q4 -5 10 -3t6 8l7 36q3 21 26 21h121q9 0 17 -8t8 -17v-1056q0 -9 -8 -17t-17 -8h-141q-11 0 -19 8t-8 17v30q0 8 -7 10t-13 -4q-66 -69 -164 -69q-113 0 -179.5 71.5t-66.5 215.5zM121 1479.5q0 13.5 12 19.5l76 47 q21 18 41 -2l280 -215q9 -9 9 -23t-9 -20l-53 -37q-21 -11 -43 2l-301 207q-12 8 -12 21.5zM184 285q0 -68 32.5 -103t88.5 -35q58 0 101 43q24 21 24 58v610q0 38 -24 57q-41 41 -103 41q-53 0 -86 -33.5t-33 -101.5v-536z" />
<glyph unicode="&#xe1;" d="M0 279v546q0 137 66 213t184 76q57 0 97 -16t81 -54q4 -5 10 -3t6 8l7 36q3 21 26 21h121q9 0 17 -8t8 -17v-1056q0 -9 -8 -17t-17 -8h-141q-11 0 -19 8t-8 17v30q0 8 -7 10t-13 -4q-66 -69 -164 -69q-113 0 -179.5 71.5t-66.5 215.5zM124 1306q0 14 11 23l281 215 q9 9 22 9.5t19 -7.5l75 -47q10 -7 11 -20t-11 -21l-301 -207q-22 -13 -43 -2l-53 37q-11 6 -11 20zM184 285q0 -68 32.5 -103t88.5 -35q58 0 101 43q24 21 24 58v610q0 38 -24 57q-41 41 -103 41q-53 0 -86 -33.5t-33 -101.5v-536z" />
<glyph unicode="&#xe2;" d="M0 279v546q0 137 66 213t184 76q57 0 97 -16t81 -54q4 -5 10 -3t6 8l7 36q3 21 26 21h121q9 0 17 -8t8 -17v-1056q0 -9 -8 -17t-17 -8h-141q-11 0 -19 8t-8 17v30q0 8 -7 10t-13 -4q-66 -69 -164 -69q-113 0 -179.5 71.5t-66.5 215.5zM68 1333.5q0 12.5 10 18.5l233 168 q6 4 19 4q10 0 18 -4l234 -168q9 -6 9 -18.5t-9 -18.5l-54 -39q-20 -8 -34 0l-150 96q-6 4 -14 4q-11 0 -17 -4l-149 -96q-13 -10 -33 0l-53 39q-10 6 -10 18.5zM184 285q0 -68 32.5 -103t88.5 -35q58 0 101 43q24 21 24 58v610q0 38 -24 57q-41 41 -103 41q-53 0 -86 -33.5 t-33 -101.5v-536z" />
<glyph unicode="&#xe3;" d="M0 279v546q0 137 66 213t184 76q57 0 97 -16t81 -54q4 -5 10 -3t6 8l7 36q3 21 26 21h121q9 0 17 -8t8 -17v-1056q0 -9 -8 -17t-17 -8h-141q-11 0 -19 8t-8 17v30q0 8 -7 10t-13 -4q-66 -69 -164 -69q-113 0 -179.5 71.5t-66.5 215.5zM45 1384q-10 17 4 31q68 74 158 74 q33 0 59.5 -6.5t41 -13.5t40.5 -23q4 -2 16.5 -9t17 -8.5t14.5 -5.5t20 -5t22 -1q51 0 97 37q6 6 17 4t17 -12l37 -53q11 -14 -2 -31q-74 -74 -166 -74q-15 0 -28 1t-25 4t-20 5.5t-18.5 7.5t-15 7.5t-16 9t-14.5 8.5q-4 2 -12.5 6.5t-12 6.5t-11 5t-12.5 4.5t-12.5 3.5 t-16 2.5t-17.5 0.5q-44 0 -92 -37q-6 -6 -16.5 -4t-16.5 12zM184 285q0 -68 32.5 -103t88.5 -35q58 0 101 43q24 21 24 58v610q0 38 -24 57q-41 41 -103 41q-53 0 -86 -33.5t-33 -101.5v-536z" />
<glyph unicode="&#xe4;" d="M0 279v546q0 137 66 213t184 76q57 0 97 -16t81 -54q4 -5 10 -3t6 8l7 36q3 21 26 21h121q9 0 17 -8t8 -17v-1056q0 -9 -8 -17t-17 -8h-141q-11 0 -19 8t-8 17v30q0 8 -7 10t-13 -4q-66 -69 -164 -69q-113 0 -179.5 71.5t-66.5 215.5zM80 1397q0 40 27.5 67t68.5 27 q38 0 65 -27t27 -67q0 -39 -26.5 -65.5t-65.5 -26.5q-41 0 -68.5 26t-27.5 66zM184 285q0 -68 32.5 -103t88.5 -35q58 0 101 43q24 21 24 58v610q0 38 -24 57q-41 41 -103 41q-53 0 -86 -33.5t-33 -101.5v-536zM389 1397q0 40 27 67t67 27t67.5 -27t27.5 -67 q0 -39 -27.5 -65.5t-67.5 -26.5t-67 26t-27 66z" />
<glyph unicode="&#xe5;" d="M0 279v546q0 137 66 213t184 76q57 0 97 -16t81 -54q4 -5 10 -3t6 8l7 36q3 21 26 21h121q9 0 17 -8t8 -17v-1056q0 -9 -8 -17t-17 -8h-141q-11 0 -19 8t-8 17v30q0 8 -7 10t-13 -4q-66 -69 -164 -69q-113 0 -179.5 71.5t-66.5 215.5zM143 1397q0 83 53 132.5t132 49.5 q80 0 133 -49.5t53 -132.5q0 -80 -53 -129t-133 -49q-79 0 -132 49t-53 129zM184 285q0 -68 32.5 -103t88.5 -35q58 0 101 43q24 21 24 58v610q0 38 -24 57q-41 41 -103 41q-53 0 -86 -33.5t-33 -101.5v-536zM236 1397q0 -44 24.5 -70.5t67.5 -26.5t69.5 26.5t26.5 70.5 q0 46 -26 72t-70 26q-43 0 -67.5 -25.5t-24.5 -72.5z" />
<glyph unicode="&#xe6;" horiz-adv-x="1148" d="M0 250v96q0 130 79 212.5t214 82.5h110q23 0 23 21v176q0 114 -109 114q-50 0 -82 -12t-81 -47q-7 -5 -19 -2t-16 10l-58 98q-10 20 11 37q66 44 125.5 62t142.5 18q107 0 182 -53q14 -10 27 0q80 53 184 53q132 0 221.5 -77.5t89.5 -213.5v-293q0 -12 -7.5 -20t-18.5 -8 h-387q-17 0 -17 -17v-204q0 -71 35 -103.5t111 -32.5q64 0 117 37q19 11 38 -2l84 -80q8 -7 7.5 -18t-9.5 -18q-98 -76 -237 -76q-70 0 -129 18q-12 4 -23 -4q-8 -4 -16 -4h-121q-22 0 -25 20l-6 43q-3 6 -9 7.5t-11 -2.5q-69 -76 -176 -76q-111 0 -177.5 68.5t-66.5 189.5z M186 276q0 -60 30.5 -94.5t84.5 -34.5q59 0 102 46q23 26 23 57v233q0 8 -6.5 14.5t-16.5 6.5h-73q-71 0 -107.5 -40t-36.5 -116v-72zM614 653q0 -18 19 -18h205q8 0 13 5.5t5 12.5v172q0 133 -121 133q-58 0 -89.5 -33.5t-31.5 -99.5v-172z" />
<glyph unicode="&#xe7;" horiz-adv-x="555" d="M0 274v551q0 131 82 212t219 81q100 0 172 -45q18 -12 10 -33l-43 -98q-5 -11 -15 -14t-19 4q-50 29 -97 29q-60 0 -91.5 -35.5t-31.5 -102.5v-547q0 -131 123 -131q47 0 94 29q11 7 21.5 2.5t13.5 -14.5l43 -99q11 -21 -8 -34q-66 -38 -156 -41l-53 -88 q-5 -6 -0.5 -14.5t15.5 -8.5q92 -2 145 -52t53 -138v-47q0 -100 -66.5 -157.5t-172.5 -57.5q-82 0 -160 47q-9 5 -12.5 15t2.5 19l24 41q15 22 37 9q64 -29 100 -29q131 0 131 115v39q0 104 -122 104q-50 0 -103 -31q-19 -11 -29 6l-12 15q-9 16 0 28l121 193 q-101 23 -158 98.5t-57 179.5z" />
<glyph unicode="&#xe8;" horiz-adv-x="724" d="M0 279v546q0 134 87.5 212.5t219.5 78.5t220.5 -77.5t88.5 -213.5v-293q0 -12 -7 -20t-19 -8h-385q-19 0 -19 -17v-204q0 -70 35.5 -103t112.5 -33q61 0 117 37q18 12 36 -2l86 -80q8 -7 7 -18t-11 -18q-95 -76 -235 -76q-159 0 -246.5 76.5t-87.5 212.5zM130 1479.5 q0 13.5 11 19.5l76 47q23 16 41 -2l281 -215q11 -9 11 -23t-11 -20l-54 -37q-19 -12 -43 2l-301 207q-11 8 -11 21.5zM186 653q0 -18 21 -18h203q8 0 14 5.5t6 12.5v172q0 64 -31 98.5t-90 34.5q-58 0 -90.5 -33.5t-32.5 -99.5v-172z" />
<glyph unicode="&#xe9;" horiz-adv-x="724" d="M0 279v546q0 134 87.5 212.5t219.5 78.5t220.5 -77.5t88.5 -213.5v-293q0 -12 -7 -20t-19 -8h-385q-19 0 -19 -17v-204q0 -70 35.5 -103t112.5 -33q61 0 117 37q18 12 36 -2l86 -80q8 -7 7 -18t-11 -18q-95 -76 -235 -76q-159 0 -246.5 76.5t-87.5 212.5zM116 1306 q0 14 11 23l281 215q7 9 20.5 9.5t20.5 -7.5l75 -47q10 -6 10.5 -19.5t-10.5 -21.5l-303 -207q-21 -14 -41 -2l-53 37q-11 6 -11 20zM186 653q0 -18 21 -18h203q8 0 14 5.5t6 12.5v172q0 64 -31 98.5t-90 34.5q-58 0 -90.5 -33.5t-32.5 -99.5v-172z" />
<glyph unicode="&#xea;" horiz-adv-x="724" d="M0 279v546q0 134 87.5 212.5t219.5 78.5t220.5 -77.5t88.5 -213.5v-293q0 -12 -7 -20t-19 -8h-385q-19 0 -19 -17v-204q0 -70 35.5 -103t112.5 -33q61 0 117 37q18 12 36 -2l86 -80q8 -7 7 -18t-11 -18q-95 -76 -235 -76q-159 0 -246.5 76.5t-87.5 212.5zM57 1333.5 q0 12.5 9 18.5l235 168q6 4 16 4q13 0 19 -4l233 -168q11 -6 11 -18.5t-11 -18.5l-53 -39q-20 -10 -33 0l-149 96q-6 4 -17 4q-8 0 -14 -4l-149 -96q-14 -8 -35 0l-53 39q-9 6 -9 18.5zM186 653q0 -18 21 -18h203q8 0 14 5.5t6 12.5v172q0 64 -31 98.5t-90 34.5 q-58 0 -90.5 -33.5t-32.5 -99.5v-172z" />
<glyph unicode="&#xeb;" horiz-adv-x="724" d="M0 279v546q0 134 87.5 212.5t219.5 78.5t220.5 -77.5t88.5 -213.5v-293q0 -12 -7 -20t-19 -8h-385q-19 0 -19 -17v-204q0 -70 35.5 -103t112.5 -33q61 0 117 37q18 12 36 -2l86 -80q8 -7 7 -18t-11 -18q-95 -76 -235 -76q-159 0 -246.5 76.5t-87.5 212.5zM72 1397 q0 40 28 67t68 27q39 0 66.5 -27.5t27.5 -66.5t-27.5 -65.5t-66.5 -26.5q-40 0 -68 26.5t-28 65.5zM186 653q0 -18 21 -18h203q8 0 14 5.5t6 12.5v172q0 64 -31 98.5t-90 34.5q-58 0 -90.5 -33.5t-32.5 -99.5v-172zM383 1397q0 40 27 67t67 27t66 -27t26 -67t-26 -66 t-66 -26t-67 26t-27 66z" />
<glyph unicode="&#xec;" horiz-adv-x="368" d="M-84 1479.5q0 13.5 12 19.5l76 47q23 16 41 -2l281 -215q9 -9 9 -23t-9 -20l-54 -37q-21 -11 -43 2l-301 207q-12 8 -12 21.5zM31 27v1054q0 9 7.5 17t16.5 8h142q9 0 16.5 -8t7.5 -17v-1054q0 -11 -8 -19t-18 -8h-140q-9 0 -16.5 8.5t-7.5 18.5z" />
<glyph unicode="&#xed;" horiz-adv-x="354" d="M-86 1306q0 14 10 23l281 215q9 9 21.5 9.5t19.5 -7.5l76 -47q10 -7 11 -20t-11 -21l-302 -207q-22 -13 -43 -2l-53 37q-10 6 -10 20zM27 27v1054q0 9 7.5 17t16.5 8h142q9 0 16.5 -8t7.5 -17v-1054q0 -11 -8.5 -19t-18.5 -8h-139q-9 0 -16.5 8.5t-7.5 18.5z" />
<glyph unicode="&#xee;" horiz-adv-x="456" d="M-84 1333.5q0 12.5 10 18.5l234 168q6 4 18 4q11 0 19 -4l233 -168q10 -6 10 -18.5t-10 -18.5l-53 -39q-20 -10 -33 0l-149 96q-8 4 -17 4q-8 0 -16 -4l-150 -96q-13 -10 -32 0l-54 39q-10 6 -10 18.5zM84 27v1054q0 9 8 17t17 8h141q9 0 16.5 -8t7.5 -17v-1054 q0 -11 -8 -19t-18 -8h-139q-9 0 -17 8.5t-8 18.5z" />
<glyph unicode="&#xef;" horiz-adv-x="432" d="M-88 1397q0 40 28 67t68 27q39 0 66.5 -27.5t27.5 -66.5t-27.5 -65.5t-66.5 -26.5q-40 0 -68 26.5t-28 65.5zM66 27v1054q0 9 7.5 17t16.5 8h141q9 0 17 -8t8 -17v-1054q0 -11 -8 -19t-19 -8h-139q-9 0 -16.5 8.5t-7.5 18.5zM221 1397q0 40 27 67t67 27t67.5 -27 t27.5 -67q0 -39 -27.5 -65.5t-67.5 -26.5t-67 26t-27 66z" />
<glyph unicode="&#xf0;" d="M0 285v540q0 80 24.5 138.5t66 90t86.5 46t95 14.5q74 0 125 -29q6 -3 12 0.5t3 10.5q-25 109 -103 198q-17 21 -47 4l-80 -36q-22 -9 -39 12l-28 63q-5 9 -1 20t15 15l45 21q6 3 6 10t-6 12q-61 49 -127 84q-26 19 -10 41l61 82q6 9 18 11.5t21 -3.5q115 -65 197 -139 q24 -16 45 -4l86 43q27 10 37 -14l28 -62q5 -10 1.5 -21.5t-15.5 -15.5l-57 -24q-7 -4 -8.5 -13.5t4.5 -15.5q42 -54 67.5 -95.5t51.5 -104.5t38.5 -145t12.5 -188v-546q0 -135 -85.5 -215t-228.5 -80q-139 0 -225 79.5t-86 215.5zM186 285q0 -138 125 -138q64 0 94.5 33.5 t30.5 104.5v538q0 135 -125 135q-64 0 -94.5 -32t-30.5 -103v-538z" />
<glyph unicode="&#xf1;" horiz-adv-x="724" d="M0 25v1056q0 9 8 17t17 8h122q8 0 16 -6t9 -13l4 -34q1 -7 8 -9t13 3q44 37 85.5 52t98.5 15q116 0 179 -73t63 -216v-800q0 -9 -7.5 -17t-17.5 -8h-141q-9 0 -17 8t-8 17v800q0 123 -106 123q-74 0 -113 -39q-23 -23 -23 -51v-833q0 -9 -7.5 -17t-16.5 -8h-141 q-9 0 -17 8t-8 17zM41 1384q-11 14 2 31q74 74 158 74q33 0 59.5 -6.5t41 -13.5t40.5 -23q4 -2 14.5 -7.5t14 -7.5t12.5 -5.5t15 -4.5l15 -2.5t19 -1.5q50 0 96 37q7 6 18.5 4t18.5 -12l35 -53q11 -14 -2 -31q-74 -74 -166 -74q-13 0 -25 1t-21 2.5t-19.5 5t-16 5.5t-15.5 7 t-13.5 7l-14 8t-12.5 7q-21 12 -28.5 15.5t-26 8.5t-39.5 5q-44 0 -92 -37q-6 -6 -16.5 -4t-16.5 12z" />
<glyph unicode="&#xf2;" d="M0 279v546q0 131 86.5 211t224.5 80q137 0 225.5 -80.5t88.5 -210.5v-546q0 -130 -88.5 -209.5t-225.5 -79.5q-138 0 -224.5 79t-86.5 210zM106 1479.5q0 13.5 11 19.5l76 47q22 16 40 -2l281 -215q10 -9 10 -23t-10 -20l-53 -37q-19 -12 -43 2l-301 207q-11 8 -11 21.5z M186 279q0 -132 125 -132t125 132v546q0 133 -125 133t-125 -133v-546z" />
<glyph unicode="&#xf3;" d="M0 279v546q0 131 86.5 211t224.5 80q137 0 225.5 -80.5t88.5 -210.5v-546q0 -130 -88.5 -209.5t-225.5 -79.5q-138 0 -224.5 79t-86.5 210zM104 1306q0 14 9 23l280 215q9 9 22 9.5t19 -7.5l76 -47q11 -6 12 -19.5t-12 -21.5l-301 -207q-22 -13 -43 -2l-53 37q-9 6 -9 20 zM186 279q0 -132 125 -132t125 132v546q0 133 -125 133t-125 -133v-546z" />
<glyph unicode="&#xf4;" d="M0 279v546q0 131 86.5 211t224.5 80q137 0 225.5 -80.5t88.5 -210.5v-546q0 -130 -88.5 -209.5t-225.5 -79.5q-138 0 -224.5 79t-86.5 210zM48 1333.5q0 12.5 11 18.5l234 168q8 4 18 4q13 0 19 -4l233 -168q11 -6 11 -18.5t-11 -18.5l-53 -39q-20 -10 -33 0l-149 96 q-8 4 -17 4q-8 0 -16 -4l-150 -96q-13 -10 -32 0l-54 39q-11 6 -11 18.5zM186 279q0 -132 125 -132t125 132v546q0 133 -125 133t-125 -133v-546z" />
<glyph unicode="&#xf5;" d="M0 279v546q0 131 86.5 211t224.5 80q137 0 225.5 -80.5t88.5 -210.5v-546q0 -130 -88.5 -209.5t-225.5 -79.5q-138 0 -224.5 79t-86.5 210zM37 1384q-9 16 2 31q74 74 160 74q46 0 75 -10.5t64 -32.5q3 -2 14 -7.5t14.5 -7t12.5 -5.5t15 -5t16 -2.5t20 -1.5q50 0 96 37 q6 6 17.5 4t17.5 -12l37 -53q4 -6 3 -15.5t-7 -15.5q-74 -74 -164 -74q-17 0 -33 2t-26.5 4.5t-24 8t-18.5 8t-19 10.5t-18 10l-6 3q-51 25 -86 26q-45 0 -93 -37q-18 -14 -34 8zM186 279q0 -132 125 -132t125 132v546q0 133 -125 133t-125 -133v-546z" />
<glyph unicode="&#xf6;" d="M0 279v546q0 131 86.5 211t224.5 80q137 0 225.5 -80.5t88.5 -210.5v-546q0 -130 -88.5 -209.5t-225.5 -79.5q-138 0 -224.5 79t-86.5 210zM63 1397q0 39 28.5 66.5t68.5 27.5q39 0 66.5 -27.5t27.5 -66.5t-27.5 -65.5t-66.5 -26.5q-40 0 -68.5 26.5t-28.5 65.5zM186 279 q0 -132 125 -132t125 132v546q0 133 -125 133t-125 -133v-546zM375 1397q0 40 26 67t66 27t67 -27t27 -67t-27 -66t-67 -26t-66 26t-26 66z" />
<glyph unicode="&#xf7;" horiz-adv-x="1167" d="M0 743v91q0 10 8 18t19 8h1001q10 0 18.5 -8.5t8.5 -17.5v-91q0 -9 -8.5 -17.5t-18.5 -8.5h-1001q-11 0 -19 8t-8 18zM428 395q0 41 29.5 71t70.5 30t71 -30t30 -71t-30 -70.5t-71 -29.5t-70.5 29.5t-29.5 70.5zM428 1180q0 41 29.5 70.5t70.5 29.5t71 -29.5t30 -70.5 q0 -43 -30 -73t-71 -30t-70.5 30t-29.5 73z" />
<glyph unicode="&#xf8;" d="M0 279v546q0 131 86.5 211t224.5 80q81 0 140 -26l34 100q11 27 39 27h39q15 0 22.5 -10.5t2.5 -24.5l-51 -146q88 -85 88 -211v-546q0 -130 -88.5 -209.5t-225.5 -79.5q-73 0 -131 22l-35 -96q-9 -27 -36 -27h-41q-12 0 -20.5 11t-4.5 24l47 139q-90 77 -90 216z M186 334l209 600q-34 24 -84 24q-125 0 -125 -133v-491zM233 166q32 -19 78 -19q125 0 125 132v466z" />
<glyph unicode="&#xf9;" d="M0 279v802q0 9 7.5 17t17.5 8h143q9 0 17 -8t8 -17v-802q0 -121 104 -121q76 0 115 39q22 22 22 51v833q0 9 8 17t17 8h141q9 0 17 -8t8 -17v-1056q0 -9 -8 -17t-17 -8h-123q-8 0 -15.5 5.5t-8.5 12.5l-4 33q-1 9 -8 11t-13 -3q-48 -37 -88.5 -52t-99.5 -15 q-114 0 -177 73t-63 214zM109 1479.5q0 13.5 12 19.5l76 47q22 18 39 -2l282 -215q9 -9 9 -23t-9 -20l-55 -37q-20 -12 -41 2l-301 207q-12 8 -12 21.5z" />
<glyph unicode="&#xfa;" d="M0 279v802q0 9 7.5 17t17.5 8h143q9 0 17 -8t8 -17v-802q0 -121 104 -121q76 0 115 39q22 22 22 51v833q0 9 8 17t17 8h141q9 0 17 -8t8 -17v-1056q0 -9 -8 -17t-17 -8h-123q-8 0 -15.5 5.5t-8.5 12.5l-4 33q-1 9 -8 11t-13 -3q-48 -37 -88.5 -52t-99.5 -15 q-114 0 -177 73t-63 214zM104 1306q0 14 9 23l282 215q7 9 20 9.5t19 -7.5l76 -47q11 -6 12 -19.5t-12 -21.5l-301 -207q-21 -14 -41 -2l-55 37q-9 6 -9 20z" />
<glyph unicode="&#xfb;" d="M0 279v802q0 9 7.5 17t17.5 8h143q9 0 17 -8t8 -17v-802q0 -121 104 -121q76 0 115 39q22 22 22 51v833q0 9 8 17t17 8h141q9 0 17 -8t8 -17v-1056q0 -9 -8 -17t-17 -8h-123q-8 0 -15.5 5.5t-8.5 12.5l-4 33q-1 9 -8 11t-13 -3q-48 -37 -88.5 -52t-99.5 -15 q-114 0 -177 73t-63 214zM54 1333.5q0 12.5 9 18.5l236 168q6 4 18 4q11 0 17 -4l235 -168q9 -6 9 -18.5t-9 -18.5l-55 -39q-18 -9 -33 0l-149 96q-6 4 -15 4q-10 0 -16 -4l-149 -96q-13 -10 -33 0l-56 39q-9 6 -9 18.5z" />
<glyph unicode="&#xfc;" d="M0 279v802q0 9 7.5 17t17.5 8h143q9 0 17 -8t8 -17v-802q0 -121 104 -121q76 0 115 39q22 22 22 51v833q0 9 8 17t17 8h141q9 0 17 -8t8 -17v-1056q0 -9 -8 -17t-17 -8h-123q-8 0 -15.5 5.5t-8.5 12.5l-4 33q-1 9 -8 11t-13 -3q-48 -37 -88.5 -52t-99.5 -15 q-114 0 -177 73t-63 214zM72 1397q0 40 27.5 67t68.5 27q38 0 65 -27t27 -67q0 -39 -26.5 -65.5t-65.5 -26.5q-41 0 -68.5 26t-27.5 66zM381 1397q0 40 27 67t67 27t67 -27t27 -67t-27 -66t-67 -26t-67 26t-27 66z" />
<glyph unicode="&#xfd;" d="M0 1073q-3 12 2.5 22.5t17.5 10.5h136q20 0 30 -23l133 -690q3 -8 11 -8q9 0 14 8l127 690q7 23 31 23h133q12 0 17.5 -9.5t2.5 -21.5l-317 -1526q-7 -22 -31 -22h-121q-11 0 -18 10t-6 23l78 399q9 29 0 59zM108 1306q0 14 9 23l282 215q7 9 20 9.5t19 -7.5l76 -47 q11 -6 12 -19.5t-12 -21.5l-301 -207q-21 -14 -41 -2l-55 37q-9 6 -9 20z" />
<glyph unicode="&#xfe;" horiz-adv-x="724" d="M0 -449v1999q0 10 8 17.5t17 7.5h141q9 0 16.5 -7.5t7.5 -17.5v-499q0 -6 7 -8t12 4q68 71 166 71q114 0 181 -72.5t67 -214.5v-557q0 -137 -65 -211.5t-181 -74.5q-97 0 -168 65q-5 7 -12 4t-7 -10v-496q0 -9 -7.5 -16.5t-16.5 -7.5h-141q-9 0 -17 7.5t-8 16.5zM190 244 q0 -39 25 -58q44 -41 100 -41t88.5 35t32.5 103v540q0 69 -33.5 102t-85.5 33q-62 0 -102 -43q-25 -29 -25 -57v-614z" />
<glyph unicode="&#xff;" d="M2 1073q-3 12 3 22.5t18 10.5h135q20 0 30 -23l134 -690q3 -8 10 -8q9 0 14 8l127 690q7 23 31 23h133q12 0 17.5 -9.5t2.5 -21.5l-317 -1526q-7 -22 -31 -22h-121q-11 0 -18 10t-6 23l78 399q9 29 0 59zM68 1397q0 40 28 67t68 27q39 0 66.5 -27.5t27.5 -66.5 t-27.5 -65.5t-66.5 -26.5q-40 0 -68 26.5t-28 65.5zM379 1397q0 40 26.5 67t67.5 27q40 0 66 -27t26 -67t-26 -66t-66 -26q-41 0 -67.5 26t-26.5 66z" />
<glyph unicode="&#x152;" horiz-adv-x="1081" d="M0 317v945q0 155 77.5 241t221.5 86q108 0 170 -53q7 -9 17 -5t10 15v4q0 11 7 18t19 7h430q11 0 19 -7.5t8 -17.5v-118q0 -10 -8.5 -18.5t-18.5 -8.5h-278q-10 0 -15.5 -6t-5.5 -13v-501q0 -21 21 -21h155q12 0 19.5 -7.5t7.5 -18.5v-107q0 -11 -7.5 -17.5t-19.5 -6.5 h-155q-10 0 -15.5 -6.5t-5.5 -14.5v-496q0 -20 19 -20h280q11 0 19 -7.5t8 -17.5v-118q0 -11 -8.5 -19t-18.5 -8h-432q-10 0 -17 8t-7 17v4q0 10 -9.5 14t-15.5 -2q-59 -53 -172 -53q-145 0 -222 87t-77 242zM197 317q0 -77 34 -115t97 -38q61 0 95 38.5t34 114.5v945 q0 76 -34.5 113.5t-94.5 37.5q-61 0 -96 -37t-35 -114v-945z" />
<glyph unicode="&#x153;" horiz-adv-x="1159" d="M0 279v546q0 131 86.5 211t224.5 80q124 0 205 -63q6 -5 15.5 -5t15.5 5q78 63 198 63q132 0 221 -77.5t89 -213.5v-293q0 -12 -7.5 -20t-19.5 -8h-385q-18 0 -18 -17v-204q0 -71 35.5 -103.5t111.5 -32.5q61 0 117 37q19 13 37 -2l84 -80q9 -7 8.5 -18t-10.5 -18 q-95 -76 -236 -76q-148 0 -227 59q-17 10 -31 0q-85 -59 -203 -59q-138 0 -224.5 79t-86.5 210zM186 279q0 -132 125 -132q62 0 95.5 33.5t33.5 98.5v546q0 133 -129 133q-125 0 -125 -133v-546zM625 651q0 -16 20 -16h203q8 0 14 5.5t6 12.5v172q0 65 -31 99t-89 34 t-90.5 -33.5t-32.5 -99.5v-174z" />
<glyph unicode="&#x178;" horiz-adv-x="845" d="M0 1540q-3 13 6 24t21 11h133q11 0 21.5 -8t11.5 -19l180 -717q2 -12 14 -12q10 0 12 12l183 717q6 27 32 27h131q14 0 22.5 -11t4.5 -24l-276 -1003q-13 -59 -13 -95v-413q0 -11 -8 -20t-20 -9h-136q-13 0 -20.5 9t-7.5 20v413q0 44 -15 95zM135 1868q0 40 27.5 67 t68.5 27q39 0 66 -27t27 -67t-27 -67t-66 -27q-41 0 -68.5 27t-27.5 67zM444 1868q0 40 27.5 67t67.5 27t67 -27t27 -67t-27 -67t-67 -27t-67.5 27t-27.5 67z" />
<glyph unicode="&#x2c6;" horiz-adv-x="604" d="M0 1333.5q0 12.5 10 18.5l234 168q8 4 18 4q11 0 19 -4l233 -168q10 -6 10 -18.5t-10 -18.5l-53 -39q-20 -10 -33 0l-149 96q-8 4 -17 4q-8 0 -16 -4l-150 -96q-13 -10 -33 0l-53 39q-10 6 -10 18.5z" />
<glyph unicode="&#x2dc;" horiz-adv-x="653" d="M4 1384q-9 16 2 31q74 74 158 74q33 0 59.5 -6.5t41 -13.5t40.5 -23q3 -2 14 -7.5t14.5 -7t12.5 -5.5t15 -5t16 -2.5t20 -1.5q51 0 97 37q6 6 17 4t17 -12l35 -53q6 -6 5 -15.5t-7 -15.5q-74 -74 -164 -74q-17 0 -33 2t-26.5 4.5t-24 8t-18.5 8t-19 10.5t-18 10 q-21 12 -28.5 15.5t-26 8.5t-39.5 5q-48 0 -90 -37q-19 -15 -35 8z" />
<glyph unicode="&#x2000;" horiz-adv-x="1024" />
<glyph unicode="&#x2001;" horiz-adv-x="2048" />
<glyph unicode="&#x2002;" horiz-adv-x="1024" />
<glyph unicode="&#x2003;" horiz-adv-x="2048" />
<glyph unicode="&#x2004;" horiz-adv-x="682" />
<glyph unicode="&#x2005;" horiz-adv-x="512" />
<glyph unicode="&#x2006;" horiz-adv-x="341" />
<glyph unicode="&#x2007;" horiz-adv-x="341" />
<glyph unicode="&#x2008;" horiz-adv-x="256" />
<glyph unicode="&#x2009;" horiz-adv-x="409" />
<glyph unicode="&#x200a;" horiz-adv-x="113" />
<glyph unicode="&#x2010;" horiz-adv-x="509" d="M0 510v96q0 9 8.5 18t18.5 9h352q11 0 19 -8.5t8 -18.5v-96q0 -11 -7.5 -18t-19.5 -7h-352q-11 0 -19 7.5t-8 17.5z" />
<glyph unicode="&#x2011;" horiz-adv-x="509" d="M0 510v96q0 9 8.5 18t18.5 9h352q11 0 19 -8.5t8 -18.5v-96q0 -11 -7.5 -18t-19.5 -7h-352q-11 0 -19 7.5t-8 17.5z" />
<glyph unicode="&#x2012;" horiz-adv-x="509" d="M0 510v96q0 9 8.5 18t18.5 9h352q11 0 19 -8.5t8 -18.5v-96q0 -11 -7.5 -18t-19.5 -7h-352q-11 0 -19 7.5t-8 17.5z" />
<glyph unicode="&#x2013;" horiz-adv-x="696" d="M0 510v96q0 9 8.5 18t18.5 9h538q10 0 18.5 -9t8.5 -18v-96q0 -10 -8 -17.5t-19 -7.5h-538q-11 0 -19 7.5t-8 17.5z" />
<glyph unicode="&#x2014;" horiz-adv-x="1124" d="M0 510v96q0 9 8.5 18t18.5 9h962q10 0 18.5 -9t8.5 -18v-96q0 -10 -8 -17.5t-19 -7.5h-962q-11 0 -19 7.5t-8 17.5z" />
<glyph unicode="&#x2018;" horiz-adv-x="317" d="M0 1317q0 62 40.5 135.5t106.5 138.5q7 10 20 14t23 1l15 -9q10 -3 13 -14t-3 -18q-47 -62 -47 -107q0 -41 22 -72q25 -41 25 -69q0 -44 -30.5 -75.5t-78.5 -31.5q-45 0 -75.5 31t-30.5 76z" />
<glyph unicode="&#x2019;" horiz-adv-x="321" d="M1 1212.5q-3 11.5 3 20.5q47 62 47 106q0 41 -22 72q-25 41 -25 70q0 44 30.5 75t78.5 31q45 0 75.5 -30.5t30.5 -75.5q0 -62 -40.5 -135.5t-106.5 -139.5q-19 -22 -43 -14l-15 6q-10 3 -13 14.5z" />
<glyph unicode="&#x201a;" horiz-adv-x="321" d="M1 -165.5q-3 11.5 3 18.5q47 66 47 108q0 41 -22 72q-25 36 -25 67q0 46 30.5 77.5t78.5 31.5q45 0 75.5 -31.5t30.5 -77.5q0 -61 -40.5 -133.5t-106.5 -140.5q-20 -20 -43 -12l-15 6q-10 3 -13 14.5z" />
<glyph unicode="&#x201c;" horiz-adv-x="622" d="M0 1317q0 62 40.5 135.5t106.5 138.5q7 10 20 14t23 1l15 -9q10 -3 13 -14t-3 -18q-47 -62 -47 -107q0 -41 22 -72q25 -41 25 -69q0 -44 -30.5 -75.5t-78.5 -31.5q-45 0 -75.5 31t-30.5 76zM305 1317q0 61 41 134.5t107 139.5q20 23 43 15l14 -9q10 -3 13 -14t-3 -18 q-47 -62 -47 -107q0 -39 23 -72q24 -39 24 -69q0 -44 -30 -75.5t-76 -31.5q-47 0 -78 31t-31 76z" />
<glyph unicode="&#x201d;" horiz-adv-x="626" d="M1 1212.5q-3 11.5 3 20.5q47 62 47 106q0 41 -22 72q-25 41 -25 70q0 44 30.5 75t78.5 31q45 0 75.5 -30.5t30.5 -75.5q0 -62 -40.5 -135.5t-106.5 -139.5q-19 -22 -43 -14l-15 6q-10 3 -13 14.5zM306 1212.5q-3 11.5 3 20.5q47 62 47 106q0 41 -22 72q-25 41 -25 70 q0 44 30.5 75t78.5 31q45 0 75.5 -30.5t30.5 -75.5q0 -63 -40.5 -136.5t-106.5 -138.5q-7 -10 -20 -13.5t-23 -0.5l-15 6q-10 3 -13 14.5z" />
<glyph unicode="&#x201e;" horiz-adv-x="626" d="M1 -165.5q-3 11.5 3 18.5q47 66 47 108q0 41 -22 72q-25 36 -25 67q0 46 30.5 77.5t78.5 31.5q45 0 75.5 -31.5t30.5 -77.5q0 -61 -40.5 -133.5t-106.5 -140.5q-20 -20 -43 -12l-15 6q-10 3 -13 14.5zM306 -165.5q-3 11.5 3 18.5q47 66 47 108q0 41 -22 72q-25 36 -25 67 q0 46 30.5 77.5t78.5 31.5q45 0 75.5 -31.5t30.5 -77.5q0 -61 -40 -134t-107 -140q-7 -9 -20 -12t-23 0l-15 6q-10 3 -13 14.5z" />
<glyph unicode="&#x2022;" horiz-adv-x="604" d="M0 793q0 107 71.5 178t180.5 71t180.5 -71t71.5 -178q0 -108 -72 -180t-180 -72t-180 72t-72 180z" />
<glyph unicode="&#x2026;" horiz-adv-x="1019" d="M0 111q0 49 34 81.5t85 32.5q50 0 83.5 -32.5t33.5 -81.5q0 -51 -33.5 -85t-83.5 -34q-51 0 -85 34t-34 85zM477 111q0 49 34 81.5t85 32.5t85 -32.5t34 -81.5q0 -51 -34 -85t-85 -34t-85 34t-34 85zM954 111q0 49 34 81.5t85 32.5t85 -32.5t34 -81.5q0 -51 -34 -85 t-85 -34t-85 34t-34 85z" />
<glyph unicode="&#x202f;" horiz-adv-x="409" />
<glyph unicode="&#x2039;" horiz-adv-x="473" d="M0 559q0 11 6 23l248 344q9 18 31 18h71q14 0 18.5 -11t-1.5 -18l-219 -342q-4 -6 -4 -14q0 -10 4 -16l219 -342q6 -7 1.5 -18t-18.5 -11h-71q-22 0 -31 18l-248 347q-6 9 -6 22z" />
<glyph unicode="&#x203a;" horiz-adv-x="481" d="M0.5 183q-3.5 11 3.5 18l215 342q4 6 4 16q0 8 -4 14l-215 342q-7 7 -3.5 18t17.5 11h70q22 0 31 -18l248 -344q6 -12 6 -23q0 -13 -6 -22l-248 -347q-9 -18 -31 -18h-70q-14 0 -17.5 11z" />
<glyph unicode="&#x205f;" horiz-adv-x="512" />
<glyph unicode="&#x20ac;" horiz-adv-x="653" d="M-84 612v56q0 11 7.5 17.5t19.5 6.5h57v191h-57q-12 0 -19.5 7.5t-7.5 18.5v54q0 10 8 18t19 8h57v277q0 154 86.5 238.5t237.5 84.5q106 0 219 -63q22 -11 12 -35l-59 -109q-12 -23 -35 -10q-67 41 -131 41q-135 0 -135 -147v-277h266q9 0 17.5 -8.5t8.5 -17.5v-56 q0 -10 -8 -17t-18 -7h-266v-191h266q10 0 18 -7t8 -17v-56q0 -10 -8.5 -18t-17.5 -8h-266v-267q0 -81 33.5 -118t101.5 -37q25 0 50 6.5t39 13t46 21.5q25 16 39 -8l55 -105q11 -22 -12 -37q-103 -67 -217 -67q-156 0 -243 85t-87 246v267h-57q-12 0 -19.5 7.5t-7.5 18.5z " />
<glyph unicode="&#x2122;" horiz-adv-x="1708" d="M0 1460v90q0 25 25 25h616q8 0 15.5 -7t7.5 -18v-90q0 -8 -7.5 -14t-15.5 -6h-215q-18 0 -18 -19v-706q0 -23 -23 -23h-111q-20 0 -20 23v706q0 19 -18 19h-211q-25 0 -25 20zM715 717l127 842q3 16 22 16h39q13 0 21 -12l241 -461q3 -6 6 -6q6 0 9 6l241 461q6 12 23 12 h37q19 0 22 -16l133 -842q1 -10 -5 -17.5t-17 -7.5h-107q-17 0 -20 19l-86 536q-2 8 -8 8.5t-11 -6.5l-190 -366q-6 -13 -21 -13q-11 0 -18 13l-188 366q-5 7 -11 6.5t-8 -8.5l-82 -536q-6 -19 -22 -19h-107q-10 0 -16.5 7.5t-3.5 17.5z" />
<glyph unicode="&#x25fc;" horiz-adv-x="1105" d="M0 0v1106h1106v-1106h-1106z" />
</font>
</defs>
</svg>
